<svg width="70" height="20" viewBox="0 0 70 20" fill="none" xmlns="http://www.w3.org/2000/svg">
<path d="M3.5 19H0.025V1.275H11.225V4.55H3.475V8.925H10.375V12.1H3.5V19ZM15.5893 19H12.2643V6.7H15.5893V19ZM11.8643 2.675C11.8643 2.10833 12.0643 1.625 12.4643 1.225C12.8643 0.808332 13.3476 0.599998 13.9143 0.599998C14.4809 0.599998 14.9643 0.799999 15.3643 1.2C15.7643 1.6 15.9643 2.09167 15.9643 2.675C15.9643 3.225 15.7643 3.7 15.3643 4.1C14.9643 4.5 14.4809 4.7 13.9143 4.7C13.3476 4.7 12.8643 4.5 12.4643 4.1C12.0643 3.7 11.8643 3.225 11.8643 2.675ZM21.749 3.025V6.7H24.224V9.65H21.749V14.8C21.749 15.3167 21.8657 15.6833 22.099 15.9C22.3324 16.1167 22.699 16.225 23.199 16.225C23.649 16.225 23.9907 16.1917 24.224 16.125V18.875C23.7407 19.075 23.1157 19.175 22.349 19.175C21.149 19.175 20.199 18.8417 19.499 18.175C18.799 17.4917 18.449 16.5583 18.449 15.375V9.65H16.224V6.7H16.849C17.4657 6.7 17.9324 6.525 18.249 6.175C18.5824 5.80833 18.749 5.33333 18.749 4.75V3.025H21.749ZM28.7025 11.925V19H25.3775V6.7H28.6025V8.225C28.9525 7.625 29.4525 7.16667 30.1025 6.85C30.7525 6.53333 31.4359 6.375 32.1525 6.375C33.6025 6.375 34.7025 6.83333 35.4525 7.75C36.2192 8.65 36.6025 9.81667 36.6025 11.25V19H33.2775V11.825C33.2775 11.0917 33.0859 10.5 32.7025 10.05C32.3359 9.6 31.7692 9.375 31.0025 9.375C30.3025 9.375 29.7442 9.61667 29.3275 10.1C28.9109 10.5833 28.7025 11.1917 28.7025 11.925ZM40.9021 11.45H46.4021C46.3688 10.7667 46.1188 10.1917 45.6521 9.725C45.2021 9.25833 44.5355 9.025 43.6521 9.025C42.8521 9.025 42.2021 9.275 41.7021 9.775C41.2021 10.275 40.9355 10.8333 40.9021 11.45ZM46.7271 14.65L49.5021 15.475C49.1688 16.6083 48.5105 17.5417 47.5271 18.275C46.5605 19.0083 45.3521 19.375 43.9021 19.375C42.1355 19.375 40.6355 18.7833 39.4021 17.6C38.1688 16.4 37.5521 14.8 37.5521 12.8C37.5521 10.9 38.1521 9.35 39.3521 8.15C40.5521 6.93333 41.9688 6.325 43.6021 6.325C45.5021 6.325 46.9855 6.89167 48.0521 8.025C49.1355 9.15833 49.6771 10.7167 49.6771 12.7C49.6771 12.8333 49.6688 12.9833 49.6521 13.15C49.6521 13.3167 49.6521 13.45 49.6521 13.55L49.6271 13.725H40.8271C40.8605 14.525 41.1771 15.1917 41.7771 15.725C42.3771 16.2583 43.0938 16.525 43.9271 16.525C45.3438 16.525 46.2771 15.9 46.7271 14.65ZM49.7455 15.575L52.5955 14.95C52.6288 15.4833 52.8372 15.9333 53.2205 16.3C53.6205 16.65 54.1622 16.825 54.8455 16.825C55.3622 16.825 55.7622 16.7083 56.0455 16.475C56.3288 16.2417 56.4705 15.95 56.4705 15.6C56.4705 14.9833 56.0288 14.5833 55.1455 14.4L53.5205 14.025C52.3705 13.775 51.5038 13.325 50.9205 12.675C50.3538 12.025 50.0705 11.25 50.0705 10.35C50.0705 9.23333 50.5038 8.28333 51.3705 7.5C52.2538 6.71667 53.3538 6.325 54.6705 6.325C55.5038 6.325 56.2372 6.45 56.8705 6.7C57.5038 6.93333 57.9955 7.24167 58.3455 7.625C58.6955 7.99167 58.9622 8.36667 59.1455 8.75C59.3288 9.13333 59.4455 9.50833 59.4955 9.875L56.7205 10.5C56.6538 10.0667 56.4538 9.68333 56.1205 9.35C55.8038 9.01667 55.3288 8.85 54.6955 8.85C54.2622 8.85 53.8872 8.96667 53.5705 9.2C53.2705 9.43333 53.1205 9.725 53.1205 10.075C53.1205 10.675 53.4955 11.0417 54.2455 11.175L55.9955 11.55C57.1788 11.8 58.0788 12.2583 58.6955 12.925C59.3288 13.5917 59.6455 14.3917 59.6455 15.325C59.6455 16.425 59.2288 17.375 58.3955 18.175C57.5622 18.975 56.3872 19.375 54.8705 19.375C54.0038 19.375 53.2288 19.25 52.5455 19C51.8622 18.7333 51.3288 18.4 50.9455 18C50.5788 17.5833 50.2955 17.175 50.0955 16.775C49.9122 16.3583 49.7955 15.9583 49.7455 15.575ZM59.7689 15.575L62.6189 14.95C62.6523 15.4833 62.8606 15.9333 63.2439 16.3C63.6439 16.65 64.1856 16.825 64.8689 16.825C65.3856 16.825 65.7856 16.7083 66.0689 16.475C66.3523 16.2417 66.4939 15.95 66.4939 15.6C66.4939 14.9833 66.0523 14.5833 65.1689 14.4L63.5439 14.025C62.3939 13.775 61.5273 13.325 60.9439 12.675C60.3773 12.025 60.0939 11.25 60.0939 10.35C60.0939 9.23333 60.5273 8.28333 61.3939 7.5C62.2773 6.71667 63.3773 6.325 64.6939 6.325C65.5273 6.325 66.2606 6.45 66.8939 6.7C67.5273 6.93333 68.0189 7.24167 68.3689 7.625C68.7189 7.99167 68.9856 8.36667 69.1689 8.75C69.3523 9.13333 69.4689 9.50833 69.5189 9.875L66.7439 10.5C66.6773 10.0667 66.4773 9.68333 66.1439 9.35C65.8273 9.01667 65.3523 8.85 64.7189 8.85C64.2856 8.85 63.9106 8.96667 63.5939 9.2C63.2939 9.43333 63.1439 9.725 63.1439 10.075C63.1439 10.675 63.5189 11.0417 64.2689 11.175L66.0189 11.55C67.2023 11.8 68.1023 12.2583 68.7189 12.925C69.3523 13.5917 69.6689 14.3917 69.6689 15.325C69.6689 16.425 69.2523 17.375 68.4189 18.175C67.5856 18.975 66.4106 19.375 64.8939 19.375C64.0273 19.375 63.2523 19.25 62.5689 19C61.8856 18.7333 61.3523 18.4 60.9689 18C60.6023 17.5833 60.3189 17.175 60.1189 16.775C59.9356 16.3583 59.8189 15.9583 59.7689 15.575Z" fill="#313131"/>
</svg>
