<svg width="70" height="19" viewBox="0 0 70 19" fill="none" xmlns="http://www.w3.org/2000/svg">
<path d="M3.475 18.4H0V0.675H11.2V3.95H3.45V8.325H10.35V11.5H3.475V18.4Z" fill="white"/>
<path d="M15.5643 18.4H12.2393V6.1H15.5643V18.4ZM11.8393 2.075C11.8393 1.50833 12.0393 1.025 12.4393 0.625001C12.8393 0.208334 13.3226 0 13.8893 0C14.4559 0 14.9393 0.2 15.3393 0.600001C15.7393 1 15.9393 1.49167 15.9393 2.075C15.9393 2.625 15.7393 3.1 15.3393 3.5C14.9393 3.9 14.4559 4.1 13.8893 4.1C13.3226 4.1 12.8393 3.9 12.4393 3.5C12.0393 3.1 11.8393 2.625 11.8393 2.075Z" fill="white"/>
<path d="M21.724 2.425V6.1H24.199V9.05H21.724V14.2C21.724 14.7167 21.8407 15.0833 22.074 15.3C22.3074 15.5167 22.674 15.625 23.174 15.625C23.624 15.625 23.9657 15.5917 24.199 15.525V18.275C23.7157 18.475 23.0907 18.575 22.324 18.575C21.124 18.575 20.174 18.2417 19.474 17.575C18.774 16.8917 18.424 15.9583 18.424 14.775V9.05H16.199V6.1H16.824C17.4407 6.1 17.9074 5.925 18.224 5.575C18.5574 5.20833 18.724 4.73333 18.724 4.15V2.425H21.724Z" fill="white"/>
<path d="M28.6775 11.325V18.4H25.3525V6.1H28.5775V7.625C28.9275 7.025 29.4275 6.56667 30.0775 6.25C30.7275 5.93333 31.4109 5.775 32.1275 5.775C33.5775 5.775 34.6775 6.23333 35.4275 7.15C36.1942 8.05 36.5775 9.21667 36.5775 10.65V18.4H33.2525V11.225C33.2525 10.4917 33.0609 9.9 32.6775 9.45C32.3109 9 31.7442 8.775 30.9775 8.775C30.2775 8.775 29.7192 9.01667 29.3025 9.5C28.8859 9.98333 28.6775 10.5917 28.6775 11.325Z" fill="white"/>
<path d="M40.8771 10.85H46.3771C46.3438 10.1667 46.0938 9.59167 45.6271 9.125C45.1771 8.65833 44.5105 8.425 43.6271 8.425C42.8271 8.425 42.1771 8.675 41.6771 9.175C41.1771 9.675 40.9105 10.2333 40.8771 10.85ZM46.7021 14.05L49.4771 14.875C49.1438 16.0083 48.4855 16.9417 47.5021 17.675C46.5355 18.4083 45.3271 18.775 43.8771 18.775C42.1105 18.775 40.6105 18.1833 39.3771 17C38.1438 15.8 37.5271 14.2 37.5271 12.2C37.5271 10.3 38.1271 8.75 39.3271 7.55C40.5271 6.33333 41.9438 5.725 43.5771 5.725C45.4771 5.725 46.9605 6.29167 48.0271 7.425C49.1105 8.55833 49.6521 10.1167 49.6521 12.1C49.6521 12.2333 49.6438 12.3833 49.6271 12.55C49.6271 12.7167 49.6271 12.85 49.6271 12.95L49.6021 13.125H40.8021C40.8355 13.925 41.1521 14.5917 41.7521 15.125C42.3521 15.6583 43.0688 15.925 43.9021 15.925C45.3188 15.925 46.2521 15.3 46.7021 14.05Z" fill="white"/>
<path d="M49.7205 14.975L52.5705 14.35C52.6038 14.8833 52.8122 15.3333 53.1955 15.7C53.5955 16.05 54.1372 16.225 54.8205 16.225C55.3372 16.225 55.7372 16.1083 56.0205 15.875C56.3038 15.6417 56.4455 15.35 56.4455 15C56.4455 14.3833 56.0038 13.9833 55.1205 13.8L53.4955 13.425C52.3455 13.175 51.4788 12.725 50.8955 12.075C50.3288 11.425 50.0455 10.65 50.0455 9.75C50.0455 8.63333 50.4788 7.68333 51.3455 6.9C52.2288 6.11667 53.3288 5.725 54.6455 5.725C55.4788 5.725 56.2122 5.85 56.8455 6.1C57.4788 6.33333 57.9705 6.64167 58.3205 7.025C58.6705 7.39167 58.9372 7.76667 59.1205 8.15C59.3038 8.53333 59.4205 8.90833 59.4705 9.275L56.6955 9.9C56.6288 9.46667 56.4288 9.08333 56.0955 8.75C55.7788 8.41667 55.3038 8.25 54.6705 8.25C54.2372 8.25 53.8622 8.36667 53.5455 8.6C53.2455 8.83333 53.0955 9.125 53.0955 9.475C53.0955 10.075 53.4705 10.4417 54.2205 10.575L55.9705 10.95C57.1538 11.2 58.0538 11.6583 58.6705 12.325C59.3038 12.9917 59.6205 13.7917 59.6205 14.725C59.6205 15.825 59.2038 16.775 58.3705 17.575C57.5372 18.375 56.3622 18.775 54.8455 18.775C53.9788 18.775 53.2038 18.65 52.5205 18.4C51.8372 18.1333 51.3038 17.8 50.9205 17.4C50.5538 16.9833 50.2705 16.575 50.0705 16.175C49.8872 15.7583 49.7705 15.3583 49.7205 14.975Z" fill="white"/>
<path d="M59.7439 14.975L62.5939 14.35C62.6273 14.8833 62.8356 15.3333 63.2189 15.7C63.6189 16.05 64.1606 16.225 64.8439 16.225C65.3606 16.225 65.7606 16.1083 66.0439 15.875C66.3273 15.6417 66.4689 15.35 66.4689 15C66.4689 14.3833 66.0273 13.9833 65.1439 13.8L63.5189 13.425C62.3689 13.175 61.5023 12.725 60.9189 12.075C60.3523 11.425 60.0689 10.65 60.0689 9.75C60.0689 8.63333 60.5023 7.68333 61.3689 6.9C62.2523 6.11667 63.3523 5.725 64.6689 5.725C65.5023 5.725 66.2356 5.85 66.8689 6.1C67.5023 6.33333 67.9939 6.64167 68.3439 7.025C68.6939 7.39167 68.9606 7.76667 69.1439 8.15C69.3273 8.53333 69.4439 8.90833 69.4939 9.275L66.7189 9.9C66.6523 9.46667 66.4523 9.08333 66.1189 8.75C65.8023 8.41667 65.3273 8.25 64.6939 8.25C64.2606 8.25 63.8856 8.36667 63.5689 8.6C63.2689 8.83333 63.1189 9.125 63.1189 9.475C63.1189 10.075 63.4939 10.4417 64.2439 10.575L65.9939 10.95C67.1773 11.2 68.0773 11.6583 68.6939 12.325C69.3273 12.9917 69.6439 13.7917 69.6439 14.725C69.6439 15.825 69.2273 16.775 68.3939 17.575C67.5606 18.375 66.3856 18.775 64.8689 18.775C64.0023 18.775 63.2273 18.65 62.5439 18.4C61.8606 18.1333 61.3273 17.8 60.9439 17.4C60.5773 16.9833 60.2939 16.575 60.0939 16.175C59.9106 15.7583 59.7939 15.3583 59.7439 14.975Z" fill="white"/>
</svg>
