<svg width="97" height="56" viewBox="0 0 97 56" fill="none" xmlns="http://www.w3.org/2000/svg">
<path d="M25.5028 51.3245C25.3965 51.537 25.2903 51.6432 25.0778 51.7495L25.2903 51.962C25.8216 52.4933 25.9279 53.2372 25.7153 53.8747C25.7153 53.8747 25.9279 53.7685 26.0341 53.3434C26.1404 52.7059 26.0341 52.0683 25.6091 51.6433C25.7153 51.6432 25.6091 51.537 25.5028 51.3245Z" fill="#FFFBF8"/>
<path d="M26.6719 43.0361C26.2469 43.3549 25.8218 43.5674 25.3968 43.7799C25.8218 43.9924 26.2469 44.205 26.5657 44.5238C26.6719 44.63 26.2469 45.2676 25.7156 45.5864C25.1843 45.9052 24.653 46.4365 24.2279 46.7553C23.6966 47.1803 23.1653 47.7116 22.9528 48.2429C22.7403 48.8805 22.9528 49.7306 23.4841 50.1556C23.6966 50.3682 24.0154 50.6869 24.2279 50.8995C24.2279 50.7932 24.5467 50.5807 24.653 50.3682C23.5903 49.5181 22.9528 48.4554 24.7592 47.4991C25.2905 47.1803 25.8218 46.7553 26.3532 46.3302C26.6719 46.1177 26.9907 45.7989 27.2033 45.5864C27.6283 45.1613 27.7346 44.63 27.6283 44.0987C27.4158 43.6737 27.097 43.3549 26.6719 43.0361Z" fill="#FFFBF8"/>
<path d="M28.1595 34.8539C28.0533 34.8539 26.4593 35.4915 25.7155 35.9165L26.7781 36.2353C26.9906 36.2353 27.0969 36.3416 27.3094 36.4478C27.3094 36.5541 27.2032 36.5541 27.2032 36.5541C26.9906 36.7666 26.6719 36.9792 26.3531 37.0854C25.6092 37.4042 24.7591 37.8293 24.0153 38.148C23.2715 38.4668 22.4214 38.6793 21.6775 39.8482C21.3588 40.4858 21.465 41.2296 21.8901 41.7609C22.2089 42.0797 22.5276 42.3985 22.9527 42.611L23.3777 42.8236C23.8028 42.5048 24.2278 42.2922 24.6529 42.0797C24.3341 41.8672 24.0153 41.7609 23.6965 41.5484C23.0589 41.1234 22.6339 40.4858 22.8464 40.5921C23.3777 40.167 24.0153 39.742 24.6529 39.5294C25.3967 39.2107 26.1405 38.8919 26.9906 38.4668C27.5219 38.2543 27.947 38.0418 28.2658 37.723C29.0096 37.1917 29.2221 36.2353 28.7971 35.3852C28.6908 35.1727 28.4783 34.9602 28.1595 34.8539Z" fill="#FFFBF8"/>
<path d="M29.5407 26.4592C29.1156 26.2467 28.6906 26.0342 28.2655 25.9279C27.4154 26.4592 26.4591 26.8843 25.5027 27.2031C26.034 27.4156 26.4591 27.6281 26.9904 27.7344C27.5217 27.9469 28.1593 28.1594 28.6906 28.3719L29.1156 28.5845C28.9031 28.6907 28.6906 28.6907 28.4781 28.797C27.8405 29.0095 27.0967 29.1158 26.3528 29.222C24.6526 29.3283 22.9524 29.7533 21.3585 30.3909C20.8272 30.6034 20.2959 31.0285 19.9771 31.5598C19.7646 31.9848 19.6583 32.5162 19.8708 32.9412C19.9771 33.26 20.1896 33.5788 20.5084 33.7913C20.9335 34.1101 21.3585 34.4289 21.7836 34.6414C22.3149 34.5351 22.7399 34.3226 23.2712 34.1101H23.59L24.4401 33.7913L23.8025 33.5788C23.0587 33.3662 22.4211 33.0475 21.8898 32.6224C22.1023 32.5162 22.2086 32.4099 22.4211 32.3036C23.9088 31.7723 25.3965 31.4535 26.8841 31.4535C27.7342 31.3473 28.4781 31.241 29.2219 31.0285C29.6469 30.9222 30.072 30.816 30.3908 30.6034C31.0283 30.3909 31.6659 29.8596 31.7722 29.1158C31.8784 27.6281 29.8595 26.5655 29.5407 26.4592Z" fill="#FFFBF8"/>
<path d="M25.9275 47.1802C25.715 47.3928 25.3962 47.7115 25.1836 47.8178C27.6277 49.1992 24.6523 50.5806 24.0148 51.8558C23.5897 52.3871 23.4835 53.0246 23.5897 53.5559C23.696 53.981 23.9085 54.0873 23.9085 54.0873C23.696 53.4497 23.9085 52.7059 24.3336 52.1745C24.9711 51.537 25.5024 51.0057 26.2463 50.3681C26.7776 49.943 27.0964 49.1992 26.7776 48.4554C26.6713 47.9241 26.2463 47.499 25.9275 47.1802Z" fill="#FFFBF8"/>
<path d="M27.0973 38.6793C27.0973 38.6793 25.9284 39.3168 25.3971 39.5294C26.0347 39.7419 26.566 40.0607 27.0973 40.4857C27.3098 40.4857 26.8847 41.1233 26.2472 41.4421C25.6096 41.7609 24.972 42.1859 24.3345 42.611C23.6969 43.036 22.7405 42.9297 22.2092 44.2049C22.103 44.7362 22.2092 45.2675 22.6343 45.6926C22.8468 46.0113 23.1656 46.2239 23.4844 46.4364L23.8032 46.6489L24.7595 46.1176L24.1219 45.6926C23.6969 45.3738 23.1656 44.6299 23.2718 44.6299C23.8032 44.3112 24.3345 43.9924 24.8658 43.7798C25.5033 43.4611 26.2472 43.1423 26.991 42.611C27.4161 42.3984 27.7348 42.0797 28.0536 41.7609C28.5849 41.2296 28.6912 40.4857 28.2662 39.8482C27.9474 39.4231 27.5223 38.9981 27.0973 38.6793Z" fill="#FFFBF8"/>
<path d="M29.3282 30.8159C28.7969 31.0285 26.6716 31.4535 26.1403 31.5598C26.6716 31.666 27.203 31.8786 27.7343 32.0911C27.9468 32.1973 28.0531 32.3036 28.2656 32.4099C27.628 32.8349 26.9904 33.1537 26.3529 33.3662C25.609 33.685 24.7589 33.8975 23.9088 34.11C23.4838 34.2163 23.0587 34.3226 22.6337 34.5351C22.2086 34.7476 21.5711 34.6414 21.0398 35.5977C20.721 36.3416 20.9335 37.2979 21.5711 37.723C21.8899 38.0417 22.2087 38.2543 22.6337 38.3605C23.2713 38.148 23.9088 37.8292 24.4402 37.6167L24.5464 37.5104L23.4838 36.9791C23.165 36.8729 22.8462 36.6603 22.6337 36.4478C22.5274 36.4478 22.5274 36.3416 22.5274 36.2353C22.74 36.129 22.8462 36.129 23.0587 36.0228C23.4838 35.9165 23.9088 35.8102 24.2276 35.704C25.0777 35.4915 25.9278 35.2789 26.7779 34.9601C27.7343 34.6414 28.5844 34.2163 29.4345 33.685C29.7532 33.4725 29.9658 33.1537 30.072 32.8349C30.1783 32.4099 30.1783 31.8785 29.9658 31.4535C29.8595 31.241 29.647 31.0285 29.3282 30.8159Z" fill="#FFFBF8"/>
<path d="M31.0284 17.852C30.4971 17.5332 29.8595 17.427 29.2219 17.3207C28.7969 17.2144 27.628 17.0019 27.3092 17.2144C26.9904 17.427 27.3092 18.4896 27.628 18.8084C28.5844 19.5522 29.5407 20.0835 30.7096 20.4023C31.1347 20.5086 32.091 21.1461 31.2409 21.6774C30.4971 22.2087 29.647 22.6338 28.7969 22.9526C28.2656 23.1651 26.9904 23.8027 25.184 24.5465C24.3339 24.8653 23.2713 25.2903 22.1024 25.7154C21.4648 25.9279 20.8273 26.1404 20.1897 26.4592C19.8709 26.5655 17.7457 27.6281 18.1707 28.9032C18.3832 29.6471 18.9145 30.1784 19.5521 30.3909L20.296 30.6034L20.4022 30.4972C21.146 29.9659 21.8899 29.4346 22.74 29.1158C22.2087 29.0095 21.6774 28.9032 21.2523 28.797C21.0398 28.6907 20.8273 28.6907 20.6147 28.5845L21.0398 28.3719C21.5711 28.1594 22.2087 27.9469 22.74 27.7344C23.9089 27.3093 24.9715 26.8843 25.8216 26.5655C27.628 25.8216 28.9032 25.2903 29.5407 24.9716C30.8159 24.4402 31.9848 23.6964 32.9411 22.7401C33.4724 21.9962 33.5787 21.1461 33.2599 20.296C33.0474 19.1272 32.1973 18.2771 31.0284 17.852Z" fill="#FFFBF8"/>
<path d="M24.4411 0C22.9534 0 21.7845 1.16888 21.7845 2.65655C21.7845 4.14421 22.9534 5.31309 24.4411 5.31309C25.9288 5.31309 27.0976 4.14421 27.0976 2.65655C27.0976 1.16888 25.9288 0 24.4411 0Z" fill="#FFFBF8"/>
<path d="M25.2903 5.6319H23.5901C23.3776 5.6319 23.165 5.73816 23.165 5.95068C23.165 6.16321 23.2713 6.37573 23.4838 6.37573H23.5901H25.2903C25.5028 6.37573 25.7153 6.26947 25.7153 6.05694C25.7153 5.84442 25.6091 5.6319 25.3965 5.6319H25.2903Z" fill="#FFFBF8"/>
<path d="M24.4407 6.69453C24.1219 6.69453 23.9094 6.8008 23.9094 7.22584L24.0157 24.5465L24.6533 24.2277C24.7595 24.2277 24.8658 24.1215 24.972 24.1215H25.0783L25.1846 7.22584C24.972 6.90706 24.7595 6.8008 24.4407 6.69453Z" fill="#FFFBF8"/>
<path d="M24.9719 52.0683L24.6531 52.2809V55.6812C24.6531 55.8938 24.8656 56 25.0781 56C25.1844 56 25.3969 55.8938 25.3969 55.6812V52.2809C25.2906 52.2809 25.2906 52.2809 25.1844 52.2809C25.0781 52.1746 24.9719 52.0683 24.9719 52.0683Z" fill="#FFFBF8"/>
<path d="M24.4401 33.7912C24.7588 33.685 25.0776 33.5787 25.3964 33.5787V31.7722C25.0776 31.8785 24.7588 31.8785 24.4401 31.8785V33.7912Z" fill="#FFFBF8"/>
<path d="M24.9714 44.2049C24.7588 44.3112 24.5463 44.4174 24.4401 44.4174V46.1176L24.5463 46.2239C24.7589 46.1176 24.8651 46.0113 25.0776 46.0113H25.1839V44.2049L24.9714 44.2049L24.8651 44.3112L24.9714 44.2049Z" fill="#FFFBF8"/>
<path d="M24.4401 48.5616V50.3681L24.5463 50.4744L24.6526 50.5806C24.8651 50.4744 24.9714 50.4744 25.1839 50.4744V48.2429H24.8651C24.7588 48.3491 24.5463 48.5616 24.4401 48.5616Z" fill="#FFFBF8"/>
<path d="M25.1839 40.0607C25.0776 40.0607 24.9714 39.9544 24.8651 39.8482L24.4401 39.9544V41.9734C24.5463 41.9734 24.6526 42.0797 24.7588 42.1859C24.8651 42.0797 25.0776 42.0797 25.2902 42.0797L25.1839 40.0607Z" fill="#FFFBF8"/>
<path d="M24.4401 37.5105C24.5463 37.5105 24.5463 37.6167 24.5463 37.723C24.5463 37.723 24.5463 37.723 24.5463 37.8292C24.7589 37.723 24.9714 37.723 25.1839 37.6167H25.2902V36.0228C24.9714 36.1291 24.6526 36.1291 24.4401 36.2353V37.5105Z" fill="#FFFBF8"/>
<path d="M24.8655 27.7344H24.5468L24.3342 27.8406V29.5408C24.5468 29.4345 24.8655 29.4345 25.0781 29.3283C25.1843 29.3283 25.1843 29.3283 25.2906 29.3283V27.7344C25.1843 27.7344 24.9718 27.7344 24.8655 27.7344Z" fill="#FFFBF8"/>
<path d="M20.7211 10.5199C19.6584 9.98862 20.6148 9.24479 20.9336 8.60722C21.3586 7.86339 21.6774 6.90703 21.5712 6.05693C21.2524 4.99432 20.296 4.25048 19.2334 4.14422C18.1708 4.03796 17.1082 4.35674 16.3643 4.99432C15.408 5.63189 14.4516 6.1632 13.389 6.58824C9.66983 8.07591 4.03795 10.5199 0 10.945C0.956357 12.2201 2.33776 12.964 3.82543 13.1765C3.71917 13.9203 5.10057 14.6641 5.63188 14.8767C6.37571 15.1955 7.33207 15.0892 8.0759 14.7704C9.03226 16.1518 10.945 16.5769 12.3264 15.6205C12.3264 15.6205 12.4326 15.6205 12.4326 15.5142C12.5389 16.1518 13.7078 16.5769 14.2391 16.6831C15.0892 16.7894 15.833 16.6831 16.5769 16.3643C17.1082 16.2581 17.4269 16.5769 17.9583 16.7894C18.5958 17.0019 19.2334 16.8956 19.871 16.5769C20.1898 16.4706 20.0835 16.3643 20.4023 16.3643C20.7211 16.3643 20.8273 16.5769 21.0398 16.5769C21.6774 16.6831 21.9962 16.2581 22.315 15.833C22.74 15.0892 23.1651 14.3454 23.3776 13.6015V10.6262C22.5275 10.7325 21.5712 10.7325 20.7211 10.5199Z" fill="#FFFBF8"/>
<path d="M32.3041 4.99429C31.5602 4.35672 30.4976 3.93167 29.435 4.1442C28.3724 4.25046 27.416 4.99429 27.0972 6.05691C26.991 7.01327 27.3097 7.86336 27.7348 8.6072C28.1598 9.24477 29.0099 9.9886 27.9473 10.5199C27.2035 10.6262 26.3534 10.7324 25.5033 10.6262V13.7078C25.7158 14.4516 26.0346 15.0892 26.4597 15.7267C26.6722 16.258 27.2035 16.4706 27.7348 16.4706C27.9473 16.4706 28.2661 16.258 28.3724 16.258C28.4786 16.258 28.5849 16.3643 28.9037 16.4706C29.435 16.7894 30.1788 16.8956 30.8164 16.6831C31.454 16.5768 31.6665 16.1518 32.1978 16.258C32.9416 16.5768 33.7917 16.6831 34.5356 16.5768C35.0669 16.4706 36.2357 16.1518 36.342 15.408C37.7234 16.3643 39.6361 16.0455 40.5925 14.7704C40.5925 14.7704 40.5925 14.6641 40.6987 14.6641C41.4426 14.9829 42.2927 15.0892 43.0365 14.8766C43.5678 14.6641 44.9492 13.9203 44.843 13.1765C46.3306 12.9639 47.8183 12.1138 48.6684 10.945C44.6304 10.5199 38.9985 8.07588 35.2794 6.58822C34.323 6.16317 33.2604 5.63186 32.3041 4.99429Z" fill="#FFFBF8"/>
<path d="M17.9583 21.8899C17.1082 21.3586 18.1708 20.8273 18.4896 20.6148C19.6585 20.296 20.6148 19.7647 21.5712 19.1271C21.89 18.8083 22.4213 17.9583 21.89 17.5332C21.3587 17.1082 20.4023 17.5332 19.871 17.6395C19.2334 17.6395 18.5959 17.852 18.0646 18.1708C17.0019 18.5958 16.0456 19.4459 15.5143 20.5085C15.1955 21.3586 15.3018 22.2087 15.8331 22.9526C16.7894 23.9089 17.9583 24.759 19.3397 25.1841L20.9336 25.8216C21.89 25.3966 22.7401 24.9715 23.5902 24.5465C21.9963 23.9089 20.8274 23.3776 20.2961 23.0588C19.5522 22.8463 18.8084 22.4213 17.9583 21.8899Z" fill="#FFFBF8"/>
<path d="M49.4113 32.0911H46.3298V27.4156H42.7168V32.0911H39.6353V20.7211H42.7168V24.9715H46.3298V20.7211H49.4113V32.0911Z" fill="#FFFBF8"/>
<path d="M52.9186 32.0911V20.7211H56.0002V32.0911H52.9186Z" fill="#FFFBF8"/>
<path d="M67.6892 24.334C67.7955 25.3966 67.3705 26.4592 66.6266 27.3093C65.7765 28.0531 64.6076 28.4782 63.4388 28.3719H62.5887V32.0911H59.5071V20.7211H63.4388C64.6076 20.6148 65.7765 20.9336 66.6266 21.6774C67.3705 22.4212 67.7955 23.3776 67.6892 24.334ZM62.4824 25.8216H63.0137C63.4388 25.8216 63.7576 25.7154 64.0763 25.3966C64.3951 25.0778 64.5014 24.759 64.5014 24.334C64.5014 23.5901 64.0763 23.1651 63.2262 23.1651H62.4824V25.8216Z" fill="#FFFBF8"/>
<path d="M76.8269 32.091L76.2956 29.9658H72.5764L71.9388 32.091H68.5385L72.2576 20.6148H76.4018L80.121 32.091H76.8269ZM75.658 27.5218L75.1267 25.6091C75.0204 25.184 74.9142 24.6527 74.7016 24.0151C74.4891 23.3776 74.4891 22.8463 74.3828 22.6337C74.3828 22.8463 74.2766 23.3776 74.064 23.9089C73.8515 24.4402 73.639 25.7153 73.1077 27.5218C73.1077 27.5218 75.658 27.5218 75.658 27.5218Z" fill="#FFFBF8"/>
<path d="M90.2161 32.091L89.6848 29.9658H85.9656L85.4343 32.091H82.0339L85.7531 20.6148H89.8973L93.6165 32.091H90.2161ZM89.0472 27.5218L88.5159 25.6091C88.4096 25.184 88.3034 24.6527 88.0909 24.0151C87.8783 23.3776 87.7721 22.8463 87.7721 22.6337C87.7721 22.8463 87.6658 23.3776 87.4533 23.9089C87.2408 24.4402 87.0282 25.7153 86.4969 27.5218C86.4969 27.5218 89.0472 27.5218 89.0472 27.5218Z" fill="#FFFBF8"/>
<path d="M42.2916 37.1917C41.654 37.1917 41.0165 37.4042 40.4852 37.9355C40.0601 38.4668 39.7413 39.2107 39.8476 39.9545C39.7413 40.6983 40.0601 41.4422 40.4852 42.0797C40.9102 42.611 41.654 42.8236 42.2916 42.8236C42.8229 42.8236 43.3542 42.7173 43.8855 42.611V43.3549C43.3542 43.5674 42.7167 43.6737 42.0791 43.5674C41.229 43.5674 40.3789 43.2486 39.7413 42.611C39.1038 41.8672 38.8912 40.9108 38.8912 39.9545C38.8912 39.3169 38.9975 38.6793 39.3163 38.148C39.5288 37.6167 39.9539 37.1917 40.4852 36.8729C41.0165 36.5541 41.654 36.4478 42.2916 36.4478C42.9292 36.4478 43.5668 36.5541 44.2043 36.8729L43.8855 37.5105C43.3542 37.4042 42.8229 37.1917 42.2916 37.1917Z" fill="#FFFBF8"/>
<path d="M51.8553 40.0608C51.9616 41.0171 51.6428 41.8672 51.0052 42.611C49.7301 43.8862 47.7111 43.8862 46.3297 42.611C45.6921 41.8672 45.4796 40.9108 45.4796 39.9545C45.3733 38.9981 45.6921 38.148 46.3297 37.4042C46.9673 36.7666 47.8174 36.4478 48.6675 36.4478C49.5176 36.4478 50.3677 36.7666 51.0052 37.4042C51.5365 38.148 51.8553 39.1044 51.8553 40.0608ZM46.3297 40.0608C46.2234 40.8046 46.436 41.5484 46.861 42.186C47.2861 42.7173 47.9236 42.9298 48.5612 42.9298C49.1988 42.9298 49.8363 42.7173 50.2614 42.186C50.6864 41.5484 50.899 40.8046 50.7927 40.0608C50.899 39.3169 50.6864 38.5731 50.2614 37.9355C49.8363 37.4042 49.1988 37.1917 48.5612 37.1917C47.9236 37.1917 47.2861 37.4042 46.861 37.9355C46.5422 38.5731 46.3297 39.3169 46.3297 40.0608Z" fill="#FFFBF8"/>
<path d="M56.85 43.4611L54.5122 37.4041C54.5122 37.9355 54.6185 38.4668 54.6185 39.1043V43.4611H53.8746V36.6603H55.0435L57.1687 42.2922L59.294 36.6603H60.5691V43.4611H59.8253V39.1043C59.8253 38.573 59.8253 38.0417 59.9316 37.5104L57.5938 43.5673H56.85V43.4611Z" fill="#FFFBF8"/>
<path d="M67.2633 38.573C67.2633 39.2106 67.0508 39.7419 66.5195 40.167C65.8819 40.592 65.2443 40.8045 64.5005 40.6983H63.7567V43.3548H63.0128V36.554H64.8193C66.4132 36.6603 67.2633 37.2979 67.2633 38.573ZM63.7567 40.0607H64.5005C65.0318 40.0607 65.5631 39.9544 65.9882 39.7419C66.3069 39.5294 66.5195 39.1043 66.5195 38.6793C66.5195 38.2542 66.4132 37.9355 66.0944 37.6167C65.6694 37.4041 65.2443 37.2979 64.713 37.2979H63.7567V40.0607Z" fill="#FFFBF8"/>
<path d="M69.177 43.4611V36.6603H70.0271V42.7172H73.0024V43.4611H69.177Z" fill="#FFFBF8"/>
<path d="M74.5959 43.4611V36.6603H75.446V43.4611H74.5959Z" fill="#FFFBF8"/>
<path d="M82.0344 43.4611L81.1843 41.3358H78.4215L77.5714 43.4611H76.7213L79.3779 36.554H80.0154L82.7782 43.4611H82.0344ZM80.9718 40.592L80.1217 38.4668C80.0154 38.2542 79.9092 37.8292 79.8029 37.5104C79.6966 37.8292 79.5904 38.148 79.4841 38.4668L78.634 40.592H80.9718Z" fill="#FFFBF8"/>
<path d="M89.5787 43.4611H88.7286L85.0094 37.7229C85.0094 38.3605 85.1157 38.9981 85.1157 39.5294V43.4611H84.3718V36.6603H85.2219L88.9411 42.3985C88.9411 42.2922 88.9411 42.0797 88.9411 41.5484C88.9411 41.017 88.9411 40.8045 88.9411 40.592V36.6603H89.6849L89.5787 43.4611Z" fill="#FFFBF8"/>
<path d="M94.0416 43.4611H93.2977V37.2979H91.1725V36.554H96.2731V37.2979H94.1478L94.0416 43.4611Z" fill="#FFFBF8"/>
<path d="M42.1854 50.7932H41.3353V49.093H39.7413V50.7932H38.8912V46.8615H39.7413V48.4554H41.3353V46.8615H42.1854V50.7932Z" fill="#FFFBF8"/>
<path d="M43.2494 50.7932V46.8615H44.0995V50.7932H43.2494Z" fill="#FFFBF8"/>
<path d="M47.8174 48.0303C47.8174 48.4554 47.7111 48.7742 47.3923 48.9867C47.0735 49.1992 46.6485 49.3055 46.2234 49.3055H45.9047V50.6869H45.0546V46.7552H46.3297C46.7548 46.7552 47.0735 46.8614 47.3923 47.074C47.7111 47.3928 47.8174 47.7115 47.8174 48.0303ZM45.9047 48.6679H46.2234C46.436 48.6679 46.6485 48.6679 46.7548 48.5616C46.861 48.4554 46.9673 48.2429 46.9673 48.1366C46.9673 47.9241 46.9673 47.8178 46.7548 47.7115C46.6485 47.6053 46.436 47.6053 46.2234 47.6053H45.7984L45.9047 48.6679Z" fill="#FFFBF8"/>
<path d="M51.0055 50.7931L50.6868 49.8368H49.1991L48.8803 50.7931H47.924L49.3054 46.7552H50.368L51.7494 50.7931H51.0055ZM50.4742 49.1992C50.2617 48.3491 50.0492 47.8178 50.0492 47.7115C50.0492 47.6053 50.0492 47.499 49.9429 47.499C49.8367 47.7115 49.7304 48.3491 49.4116 49.1992L50.4742 49.1992Z" fill="#FFFBF8"/>
<path d="M54.831 50.7931L54.5123 49.8368H53.1309L52.8121 50.7931H51.8557L53.2371 46.7552H54.2997L55.6811 50.7931H54.831ZM54.406 49.1992C54.1935 48.3491 53.981 47.8178 53.981 47.7115C53.981 47.6053 53.981 47.499 53.8747 47.499C53.7684 47.7115 53.6622 48.3491 53.3434 49.1992L54.406 49.1992Z" fill="#FFFBF8"/>
<path d="M57.806 50.7931H56.9559V47.499H55.8933V46.7552H58.8686V47.499H57.806V50.7931Z" fill="#FFFBF8"/>
<path d="M61.1009 47.7116C61.2072 47.7116 61.3135 47.7116 61.4197 47.7116L61.3135 48.4554C61.2072 48.4554 61.1009 48.4554 61.1009 48.4554C60.8884 48.4554 60.6759 48.5617 60.4634 48.668C60.3571 48.7742 60.2509 48.9867 60.2509 49.1993V50.7932H59.4008V47.8179H60.0383L60.1446 48.3492C60.2508 48.1366 60.3571 48.0304 60.5696 47.9241C60.6759 47.8179 60.8884 47.7116 61.1009 47.7116Z" fill="#FFFBF8"/>
<path d="M63.8638 50.7932L63.7575 50.3681C63.6512 50.4744 63.545 50.6869 63.3325 50.6869C63.1199 50.7932 62.9074 50.7932 62.8011 50.7932C62.5886 50.7932 62.2698 50.6869 62.0573 50.5807C61.8448 50.3681 61.7385 50.1556 61.8448 49.8368C61.8448 49.518 61.951 49.3055 62.1636 49.093C62.4824 48.8805 62.9074 48.7742 63.2262 48.8805H63.7575V48.7742C63.7575 48.4554 63.545 48.3492 63.2262 48.3492C62.9074 48.3492 62.5886 48.4554 62.3761 48.5617L62.0573 48.0304C62.3761 47.8179 62.8011 47.7116 63.2262 47.7116C63.545 47.7116 63.8638 47.8179 64.1826 47.9241C64.3951 48.1366 64.5013 48.4554 64.5013 48.7742V50.7932H63.8638ZM63.6512 49.4118H63.3325C63.1199 49.4118 62.9074 49.4118 62.8011 49.518C62.6949 49.6243 62.5886 49.7306 62.5886 49.8368C62.5886 50.0494 62.6949 50.1556 63.0137 50.1556C63.2262 50.1556 63.3325 50.1556 63.4387 49.9431C63.545 49.8368 63.6512 49.6243 63.6512 49.518L63.6512 49.4118Z" fill="#FFFBF8"/>
<path d="M65.2449 46.9677C65.2449 46.6489 65.3511 46.5427 65.6699 46.5427C65.9887 46.5427 66.095 46.6489 66.095 46.9677C66.095 47.074 66.095 47.1803 65.9887 47.2865C65.8825 47.3928 65.7762 47.3928 65.6699 47.3928C65.4574 47.3928 65.2449 47.2865 65.2449 46.9677ZM66.095 50.7932H65.2449V47.8178H66.095V50.7932Z" fill="#FFFBF8"/>
<path d="M69.8136 50.7932H68.9635V48.9867C68.9635 48.7742 68.9635 48.6679 68.8572 48.4554C68.751 48.3491 68.6447 48.2429 68.5384 48.2429C68.3259 48.2429 68.1134 48.3491 68.0071 48.4554C67.9009 48.6679 67.7946 48.9867 67.9009 49.1992V50.5806H67.0508V47.8178H67.6884L67.7946 48.2429C67.9009 48.1366 68.0071 48.0303 68.2197 47.9241C68.4322 47.8178 68.5384 47.8178 68.751 47.8178C69.0698 47.8178 69.3885 47.9241 69.6011 48.1366C69.8136 48.3491 69.9199 48.6679 69.9199 48.9867L69.8136 50.7932Z" fill="#FFFBF8"/>
<path d="M70.6642 46.9677C70.6642 46.6489 70.7704 46.5427 71.0892 46.5427C71.408 46.5427 71.5143 46.6489 71.5143 46.9677C71.5143 47.074 71.5143 47.1803 71.408 47.2865C71.3018 47.3928 71.1955 47.3928 71.0892 47.3928C70.7704 47.3928 70.6642 47.2865 70.6642 46.9677ZM71.5143 50.7932H70.6642V47.8178H71.5143V50.7932Z" fill="#FFFBF8"/>
<path d="M75.233 50.7932H74.3829V48.9867C74.3829 48.7742 74.3829 48.6679 74.2767 48.4554C74.1704 48.3491 74.0642 48.2429 73.9579 48.2429C73.7454 48.2429 73.5328 48.3491 73.4266 48.4554C73.3203 48.6679 73.2141 48.9867 73.3203 49.1992V50.5806H72.4702V47.8178H73.1078L73.214 48.2429C73.3203 48.1366 73.4266 48.0303 73.6391 47.9241C73.8516 47.8178 73.9579 47.8178 74.1704 47.8178C74.4892 47.8178 74.808 47.9241 75.0205 48.1366C75.233 48.3491 75.3393 48.6679 75.3393 48.9867L75.233 50.7932Z" fill="#FFFBF8"/>
<path d="M78.7401 47.8178V48.2429L78.315 48.3491C78.4213 48.4554 78.4213 48.6679 78.4213 48.7742C78.4213 49.093 78.315 49.3055 78.1025 49.518C77.7837 49.7305 77.4649 49.8368 77.1461 49.8368H76.8273C76.7211 49.8368 76.7211 49.9431 76.7211 50.0493C76.7211 50.1556 76.9336 50.2619 77.1461 50.2619H77.6774C77.9962 50.2619 78.2087 50.3681 78.4213 50.4744C78.5275 50.5806 78.6338 50.7932 78.6338 51.0057C78.6338 51.3245 78.4213 51.6433 78.2087 51.8558C77.7837 52.0683 77.3586 52.1746 76.9336 52.1746C76.6148 52.1746 76.296 52.1746 75.9772 51.962C75.7647 51.8558 75.6584 51.537 75.6584 51.3245C75.6584 51.1119 75.7647 51.0057 75.871 50.8994C75.9772 50.7932 76.1898 50.6869 76.4023 50.6869C76.296 50.6869 76.1898 50.5806 76.1898 50.4744C76.0835 50.2618 76.0835 50.0493 76.1898 49.9431C76.296 49.8368 76.4023 49.7305 76.5085 49.7305C76.296 49.6243 76.1898 49.518 76.0835 49.4118C75.9772 49.1992 75.9772 49.093 75.9772 48.8804C75.9772 48.5617 76.0835 48.3491 76.296 48.1366C76.6148 47.9241 76.9336 47.8178 77.2524 47.8178H77.5712H78.7401ZM76.4023 51.3245C76.4023 51.4307 76.5086 51.537 76.6148 51.537C76.7211 51.6432 76.9336 51.6432 77.0399 51.6432C77.2524 51.6432 77.5712 51.6432 77.7837 51.537C77.89 51.537 77.9962 51.3245 77.9962 51.2182C77.9962 51.1119 77.89 51.0057 77.7837 51.0057C77.6774 51.0057 77.4649 50.8994 77.3587 50.8994H76.9336C76.8273 50.8994 76.6148 50.8994 76.5086 51.0057C76.4023 51.1119 76.4023 51.1119 76.4023 51.3245ZM76.6148 48.7742C76.6148 48.8804 76.6148 49.093 76.7211 49.1992C76.8273 49.3055 76.9336 49.4118 77.0399 49.3055C77.1461 49.3055 77.3587 49.3055 77.3587 49.1992C77.4649 49.093 77.4649 48.9867 77.4649 48.7742C77.4649 48.4554 77.3587 48.2429 77.0399 48.2429C76.7211 48.2429 76.6148 48.4554 76.6148 48.7742Z" fill="#FFFBF8"/>
<path d="M79.0596 50.4744C79.0596 50.3682 79.0596 50.2619 79.1658 50.1556C79.2721 50.0494 79.3784 50.0494 79.4846 50.0494C79.5909 50.0494 79.6971 50.0494 79.8034 50.1556C79.9097 50.2619 79.9097 50.3682 79.9097 50.4744C79.9097 50.5807 79.9097 50.6869 79.8034 50.7932C79.5909 50.8995 79.2721 50.8995 79.0596 50.7932C79.1658 50.6869 79.0596 50.5807 79.0596 50.4744Z" fill="#FFFBF8"/>
<path d="M82.0345 50.8994C81.0781 50.8994 80.6531 50.3681 80.6531 49.3055C80.6531 48.8805 80.7593 48.4554 81.0781 48.1366C81.3969 47.8179 81.7157 47.7116 82.1407 47.7116C82.4595 47.7116 82.7783 47.8179 83.0971 47.9241L82.8846 48.5617L82.5658 48.4554C82.4595 48.4554 82.3533 48.4554 82.247 48.4554C81.822 48.4554 81.6094 48.7742 81.6094 49.4118C81.6094 50.0494 81.822 50.2619 82.247 50.2619C82.3533 50.2619 82.5658 50.2619 82.6721 50.1556C82.7783 50.1556 82.9908 50.0494 83.0971 49.9431V50.6869C82.9908 50.7932 82.7783 50.7932 82.6721 50.8995C82.3533 50.8994 82.247 50.8994 82.0345 50.8994Z" fill="#FFFBF8"/>
<path d="M86.3906 49.3055C86.3906 49.7306 86.2843 50.1556 86.0718 50.4744C85.753 50.7932 85.4342 50.8994 85.0091 50.8994C84.6904 50.8994 84.4778 50.7932 84.2653 50.6869C84.0528 50.5807 83.8403 50.3681 83.734 50.1556C83.6277 49.9431 83.5215 49.6243 83.5215 49.3055C83.5215 48.8805 83.6277 48.4554 83.9465 48.1366C84.2653 47.8179 84.5841 47.7116 85.0092 47.7116C85.3279 47.7116 85.5405 47.8179 85.753 47.9241C85.9655 48.0304 86.178 48.2429 86.2843 48.4554C86.3906 48.7742 86.4968 48.9867 86.3906 49.3055ZM84.2653 49.3055C84.2653 49.518 84.2653 49.7306 84.3716 49.9431C84.4778 50.0494 84.6904 50.1556 84.9029 50.1556C85.1154 50.1556 85.3279 50.0494 85.3279 49.9431C85.4342 49.7306 85.4342 49.518 85.4342 49.3055C85.4342 49.093 85.4342 48.8805 85.3279 48.668C85.2217 48.5617 85.0091 48.4554 84.7966 48.4554C84.5841 48.4554 84.3716 48.5617 84.3716 48.668C84.3716 48.8805 84.2653 49.093 84.2653 49.3055Z" fill="#FFFBF8"/>
<path d="M89.8967 50.7932H89.0466V48.9867C89.0466 48.7742 89.0466 48.6679 88.9404 48.4554C88.8341 48.3491 88.7278 48.2429 88.6216 48.2429C88.4091 48.2429 88.3028 48.3491 88.1965 48.4554C88.0903 48.6679 87.984 48.9867 88.0903 49.1992V50.5806H87.1339V47.8178H87.7715L87.8777 48.2429C87.984 48.1366 88.0903 48.0303 88.1965 47.9241C88.409 47.8178 88.5153 47.8178 88.7278 47.8178C89.0466 47.8178 89.4717 47.9241 89.6842 48.2429H89.7905C89.8967 48.1366 90.003 48.0304 90.1092 47.9241C90.3218 47.8178 90.428 47.8178 90.6406 47.8178C90.9593 47.8178 91.1719 47.9241 91.3844 48.0304C91.5969 48.2429 91.7032 48.5617 91.5969 48.8805V50.8994H90.7468V49.093C90.7468 48.8805 90.7468 48.7742 90.6405 48.5617C90.5343 48.4554 90.428 48.3491 90.3218 48.3491C90.1092 48.3491 90.003 48.4554 89.8967 48.5617C89.7904 48.7742 89.6842 48.9867 89.7904 49.3055L89.8967 50.7932Z" fill="#FFFBF8"/>
</svg>
