<svg width="60" height="59" viewBox="0 0 60 59" fill="none" xmlns="http://www.w3.org/2000/svg">
<path d="M29.6995 0L30.6588 2.95198H33.7628L31.2521 4.77682L32.2115 7.7288L29.6995 5.90396L27.1875 7.7288L28.1469 4.77682L25.6362 2.95198H28.7402L29.6995 0Z" fill="#FFFBF8"/>
<path d="M29.6995 51.2712L30.6588 54.2232H33.7628L31.2521 56.048L32.2115 59L29.6995 57.1752L27.1875 59L28.1469 56.048L25.6362 54.2232H28.7402L29.6995 51.2712Z" fill="#FFFBF8"/>
<path d="M55.3357 25.6363L56.2951 28.5882H59.399L56.8884 30.4131L57.8477 33.3651L55.3357 31.5402L52.8238 33.3651L53.7831 30.4131L51.2725 28.5882H54.3764L55.3357 25.6363Z" fill="#FFFBF8"/>
<path d="M4.06327 25.6363L5.0226 28.5882H8.12654L5.6159 30.4131L6.57523 33.3651L4.06327 31.5402L1.55131 33.3651L2.51064 30.4131L0 28.5882H3.10394L4.06327 25.6363Z" fill="#FFFBF8"/>
<path d="M51.9174 12.8175L52.8767 15.7695H55.9807L53.47 17.5943L54.4294 20.5463L51.9174 18.7214L49.4054 20.5463L50.3648 17.5943L47.8541 15.7695H50.9581L51.9174 12.8175Z" fill="#FFFBF8"/>
<path d="M42.517 3.41843L43.4763 6.37041H46.5803L44.0696 8.19525L45.029 11.1472L42.517 9.32239L40.005 11.1472L40.9644 8.19525L38.4537 6.37041H41.5577L42.517 3.41843Z" fill="#FFFBF8"/>
<path d="M16.8807 47.8541L17.84 50.8061H20.9439L18.4333 52.6309L19.3926 55.5829L16.8807 53.7581L14.3687 55.5829L15.328 52.6309L12.8174 50.8061H15.9213L16.8807 47.8541Z" fill="#FFFBF8"/>
<path d="M7.48173 38.4537L8.44106 41.4057H11.545L9.03436 43.2306L9.99369 46.1825L7.48173 44.3577L4.96977 46.1825L5.9291 43.2306L3.41846 41.4057H6.5224L7.48173 38.4537Z" fill="#FFFBF8"/>
<path d="M7.48173 12.8175L8.44106 15.7695H11.545L9.03436 17.5943L9.99369 20.5463L7.48173 18.7214L4.96977 20.5463L5.9291 17.5943L3.41846 15.7695H6.5224L7.48173 12.8175Z" fill="#FFFBF8"/>
<path d="M51.9174 38.4537L52.8767 41.4057H55.9807L53.47 43.2306L54.4294 46.1825L51.9174 44.3577L49.4054 46.1825L50.3648 43.2306L47.8541 41.4057H50.9581L51.9174 38.4537Z" fill="#FFFBF8"/>
<path d="M16.8807 3.41843L17.84 6.37041H20.9439L18.4333 8.19525L19.3926 11.1472L16.8807 9.32239L14.3687 11.1472L15.328 8.19525L12.8174 6.37041H15.9213L16.8807 3.41843Z" fill="#FFFBF8"/>
<path d="M42.517 47.8541L43.4763 50.8061H46.5803L44.0696 52.6309L45.029 55.5829L42.517 53.7581L40.005 55.5829L40.9644 52.6309L38.4537 50.8061H41.5577L42.517 47.8541Z" fill="#FFFBF8"/>
<path d="M18.5338 29.5595H21.5677V33.6994C21.0709 33.8606 20.5952 33.9755 20.138 34.0429C19.6808 34.1103 19.1879 34.1447 18.658 34.1447C17.4093 34.1447 16.4474 33.7747 15.7708 33.036C15.0943 32.2974 14.756 31.2548 14.756 29.9083C14.756 28.5618 15.1379 27.5417 15.9016 26.7925C16.6654 26.0419 17.7159 25.6667 19.0545 25.6667C19.916 25.6667 20.7313 25.8318 21.5017 26.1635L21.0273 27.2854C20.3573 26.9775 19.6887 26.8229 19.0188 26.8229C18.1387 26.8229 17.4437 27.099 16.9323 27.6514C16.4209 28.2037 16.1659 28.9596 16.1659 29.9189C16.1659 30.9271 16.3958 31.6922 16.857 32.2168C17.3182 32.7414 17.9802 33.003 18.8457 33.003C19.2817 33.003 19.7482 32.9488 20.245 32.8392V30.713H18.5365V29.5568L18.5338 29.5595Z" fill="#FFFBF8"/>
<path d="M30.2532 29.8303C30.2532 31.1914 29.8752 32.2326 29.1194 32.9528C28.3636 33.6729 27.2748 34.0324 25.8543 34.0324H23.5471V25.7869H26.0961C27.4082 25.7869 28.4297 26.141 29.1591 26.8467C29.8885 27.5536 30.2532 28.5486 30.2532 29.8303ZM28.8314 29.8753C28.8314 27.9011 27.9077 26.914 26.0617 26.914H24.8936V32.8986H25.8529C27.8377 32.8986 28.8314 31.8904 28.8314 29.8753Z" fill="#FFFBF8"/>
<path d="M37.4838 28.279C37.4838 29.1406 37.2023 29.8 36.6381 30.2585C36.0739 30.717 35.2718 30.9469 34.2292 30.9469H33.3716V34.0324H32.0238V25.7869H34.3983C35.429 25.7869 36.2007 25.997 36.7134 26.4185C37.2261 26.84 37.4838 27.4598 37.4838 28.2804V28.279ZM33.3716 29.8132H34.0878C34.7802 29.8132 35.2876 29.6929 35.6101 29.4524C35.9325 29.2119 36.095 28.8353 36.095 28.324C36.095 27.8496 35.9496 27.4968 35.6603 27.2642C35.3709 27.0316 34.919 26.914 34.3072 26.914H33.3703V29.8132H33.3716Z" fill="#FFFBF8"/>
<path d="M40.4794 30.7381V34.0324H39.1316V25.7869H41.4612C42.5249 25.7869 43.3125 25.9864 43.8238 26.3842C44.3352 26.7832 44.5902 27.3845 44.5902 28.1892C44.5902 29.2159 44.0564 29.9466 42.9887 30.3827L45.3183 34.0324H43.7842L41.81 30.7381H40.4794ZM40.4794 29.6216H41.4163C42.0439 29.6216 42.4998 29.5053 42.7813 29.2714C43.0627 29.0388 43.2041 28.6926 43.2041 28.2341C43.2041 27.7756 43.0522 27.4333 42.7469 27.2299C42.4417 27.0264 41.9831 26.9259 41.37 26.9259H40.4794V29.6216Z" fill="#FFFBF8"/>
</svg>
