<svg width="117" height="56" viewBox="0 0 117 56" fill="none" xmlns="http://www.w3.org/2000/svg">
<path d="M24.2325 0L0 9.33811V22.5603C0 33.8895 6.25131 44.6136 16.7219 51.241L24.2325 56L31.743 51.241C42.2177 44.6095 48.4649 33.8895 48.4649 22.5603V9.33811L24.2325 0ZM46.4288 22.5603C46.4288 33.223 40.521 43.3339 30.6228 49.6015L24.302 53.6082C24.2815 53.6205 24.257 53.6246 24.2325 53.6246C24.212 53.6246 24.1875 53.6205 24.1671 53.6082L17.8422 49.6015C7.94395 43.3339 2.03608 33.2271 2.03608 22.5603V10.7527C2.03608 10.7037 2.06877 10.6546 2.11786 10.6382L24.1916 2.1342C24.2161 2.12193 24.2488 2.12193 24.2774 2.1342L46.3512 10.6382C46.3961 10.6546 46.4288 10.7037 46.4288 10.7527V22.5603Z" fill="#FFFBF8"/>
<path d="M32.0889 22.0966H29.6873V20.084C29.6873 17.0764 27.2402 14.6293 24.2325 14.6293C21.2249 14.6293 18.7778 17.0764 18.7778 20.084V22.0966H16.3761V20.084C16.3761 15.7521 19.9006 12.2276 24.2325 12.2276C28.5644 12.2276 32.0889 15.7521 32.0889 20.084V22.0966Z" fill="#FFFBF8"/>
<path d="M33.1568 22.1117H15.3093C14.6793 22.1117 14.1692 22.6253 14.1692 23.2553V36.7255C14.1692 37.3555 14.6793 37.869 15.3093 37.869H33.1568C33.7868 37.869 34.2969 37.3555 34.2969 36.7255V23.2553C34.2969 22.6253 33.7868 22.1117 33.1568 22.1117ZM27.1416 34.5495C26.9639 34.7791 26.7005 34.909 26.4163 34.909H22.0502C21.766 34.909 21.5026 34.7791 21.325 34.5495C21.1474 34.323 21.0852 34.03 21.1533 33.746L21.9614 30.3116C21.3723 29.6561 21.0941 28.8043 21.174 27.9102C21.3013 26.4603 22.4232 25.2762 23.8411 25.0949C24.7232 24.9862 25.6082 25.2641 26.2683 25.8592C26.9255 26.4542 27.3044 27.3091 27.3044 28.2062C27.3044 28.9855 27.0232 29.7316 26.5052 30.3116L27.3132 33.746C27.3814 34.03 27.3162 34.323 27.1416 34.5495Z" fill="#FFFBF8"/>
<path d="M58.7072 24.0738C57.9907 23.835 57.4277 23.5255 57.0182 23.1453L57.5593 22.0048C57.949 22.3556 58.4487 22.6407 59.0581 22.8602C59.6672 23.0795 60.2937 23.1892 60.937 23.1892C61.7851 23.1892 62.4188 23.0455 62.838 22.7578C63.257 22.4703 63.4668 22.0876 63.4668 21.6099C63.4668 21.2591 63.3521 20.9739 63.1231 20.7545C62.894 20.5352 62.6114 20.3671 62.275 20.25C61.9387 20.133 61.4634 20.0014 60.8493 19.8552C60.0791 19.6701 59.4578 19.4848 58.985 19.2996C58.5121 19.1145 58.1076 18.8293 57.7712 18.4441C57.4351 18.0591 57.2668 17.54 57.2668 16.8868C57.2668 16.3411 57.4106 15.8486 57.6982 15.4099C57.9857 14.9714 58.4221 14.6203 59.0069 14.3572C59.5918 14.0939 60.3179 13.9623 61.1856 13.9623C61.7899 13.9623 62.3848 14.0406 62.9695 14.1963C63.5545 14.3524 64.0564 14.5765 64.4758 14.869L63.9932 16.0387C63.5642 15.7659 63.1059 15.5587 62.6187 15.4172C62.1311 15.276 61.6535 15.2053 61.1856 15.2053C60.3571 15.2053 59.7356 15.3566 59.3214 15.6585C58.9068 15.9609 58.6999 16.3509 58.6999 16.8283C58.6999 17.1793 58.8168 17.4645 59.0507 17.6837C59.2847 17.9032 59.5747 18.0738 59.9208 18.1955C60.2667 18.3176 60.7372 18.4466 61.3319 18.583C62.1019 18.7683 62.7211 18.9537 63.189 19.1386C63.6569 19.3241 64.0589 19.6067 64.3953 19.9869C64.7316 20.3671 64.8999 20.8789 64.8999 21.5222C64.8999 22.0585 64.7536 22.5482 64.4611 22.9918C64.1687 23.4355 63.7249 23.7863 63.1305 24.0446C62.5358 24.3029 61.8046 24.4322 60.937 24.4322C60.167 24.4322 59.4236 24.3128 58.7072 24.0738Z" fill="#FFFBF8"/>
<path d="M74.4619 23.043V24.3151H67.0339V14.0794H74.2571V15.3516H68.4962V18.4953H73.6284V19.7383H68.4962V23.043H74.4619Z" fill="#FFFBF8"/>
<path d="M78.5933 23.7522C77.7695 23.2987 77.1237 22.6751 76.6558 21.8804C76.1879 21.086 75.9541 20.1915 75.9541 19.1972C75.9541 18.2028 76.1879 17.3085 76.6558 16.514C77.1237 15.7196 77.772 15.0956 78.6008 14.6424C79.4292 14.189 80.3553 13.9623 81.3788 13.9623C82.1783 13.9623 82.9093 14.0964 83.5723 14.3644C84.235 14.6327 84.8006 15.0297 85.2685 15.5561L84.318 16.4775C83.548 15.6684 82.5874 15.2637 81.4376 15.2637C80.6772 15.2637 79.9898 15.4344 79.3755 15.7756C78.7615 16.117 78.2811 16.587 77.9353 17.1867C77.5891 17.7861 77.4162 18.4565 77.4162 19.1972C77.4162 19.9382 77.5891 20.6082 77.9353 21.2079C78.2811 21.8073 78.7615 22.2777 79.3755 22.6189C79.9898 22.9603 80.6772 23.1307 81.4376 23.1307C82.5781 23.1307 83.5379 22.7213 84.318 21.9024L85.2685 22.8237C84.8006 23.3499 84.2324 23.7498 83.5651 24.0226C82.8971 24.2958 82.1636 24.4322 81.3642 24.4322C80.3407 24.4322 79.417 24.2054 78.5933 23.7522Z" fill="#FFFBF8"/>
<path d="M88.3682 23.2622C87.6079 22.4825 87.2277 21.3613 87.2277 19.899V14.0794H88.6897V19.8407C88.6897 22.0339 89.6499 23.1307 91.5705 23.1307C92.5063 23.1307 93.2227 22.8602 93.72 22.3191C94.2172 21.7782 94.4657 20.9519 94.4657 19.8407V14.0794H95.8841V19.899C95.8841 21.3711 95.5039 22.4947 94.7435 23.2696C93.9831 24.0446 92.9205 24.4322 91.5559 24.4322C90.1908 24.4322 89.1286 24.0423 88.3682 23.2622Z" fill="#FFFBF8"/>
<path d="M105.725 24.3151L103.517 21.1712C103.244 21.1909 103.03 21.2005 102.874 21.2005H100.344V24.3151H98.8818V14.0794H102.874C104.199 14.0794 105.242 14.3962 106.003 15.0297C106.763 15.6635 107.143 16.536 107.143 17.6472C107.143 18.4368 106.948 19.1095 106.559 19.6651C106.169 20.2209 105.613 20.6254 104.892 20.8789L107.319 24.3151H105.725ZM104.95 19.3581C105.437 18.9584 105.681 18.3881 105.681 17.6472C105.681 16.9065 105.437 16.3386 104.95 15.9437C104.463 15.5488 103.756 15.3516 102.83 15.3516H100.344V19.9576H102.83C103.756 19.9576 104.463 19.758 104.95 19.3581Z" fill="#FFFBF8"/>
<path d="M116.941 23.043V24.3151H109.512V14.0794H116.736V15.3516H110.975V18.4953H116.107V19.7383H110.975V23.043H116.941Z" fill="#FFFBF8"/>
<path d="M58.6482 41.7086C57.8927 41.4894 57.2859 41.2042 56.8276 40.8532L57.6319 39.0693C58.0706 39.3909 58.592 39.6494 59.1965 39.8444C59.8008 40.0395 60.4051 40.1367 61.0098 40.1367C61.6824 40.1367 62.1795 40.037 62.5012 39.837C62.823 39.6373 62.9838 39.3716 62.9838 39.0401C62.9838 38.7965 62.8887 38.594 62.6986 38.4333C62.5085 38.2724 62.2647 38.1433 61.9676 38.0458C61.6701 37.9484 61.2679 37.841 60.7611 37.7241C59.9811 37.539 59.3428 37.3536 58.8457 37.1683C58.3484 36.9832 57.9219 36.6857 57.5662 36.2764C57.2102 35.867 57.0324 35.321 57.0324 34.6387C57.0324 34.0442 57.1933 33.5055 57.515 33.0229C57.8367 32.5403 58.3216 32.1578 58.9699 31.875C59.6181 31.5923 60.4103 31.4509 61.3461 31.4509C61.9991 31.4509 62.6376 31.5291 63.2616 31.6849C63.8854 31.841 64.4315 32.0651 64.8994 32.3575L64.1682 34.1561C63.2226 33.6202 62.2769 33.3519 61.3314 33.3519C60.6684 33.3519 60.1785 33.4593 59.8618 33.6735C59.545 33.8882 59.3866 34.1708 59.3866 34.5216C59.3866 34.8727 59.5694 35.1336 59.9351 35.304C60.3006 35.4746 60.8585 35.6429 61.6092 35.8085C62.3891 35.9937 63.0276 36.179 63.5249 36.3641C64.022 36.5493 64.4483 36.8418 64.8044 37.2415C65.16 37.6412 65.338 38.1823 65.338 38.8645C65.338 39.4495 65.1747 39.9833 64.8482 40.4658C64.5214 40.9482 64.0316 41.3309 63.3786 41.6136C62.7255 41.8962 61.9309 42.0376 60.9951 42.0376C60.1858 42.0376 59.4036 41.9281 58.6482 41.7086Z" fill="#FFFBF8"/>
<path d="M67.9773 41.7086C67.2218 41.4894 66.615 41.2042 66.1567 40.8532L66.961 39.0693C67.3997 39.3909 67.9211 39.6494 68.5256 39.8444C69.1299 40.0395 69.7344 40.1367 70.3387 40.1367C71.0112 40.1367 71.5085 40.037 71.8303 39.837C72.1518 39.6373 72.3129 39.3716 72.3129 39.0401C72.3129 38.7965 72.2176 38.594 72.0275 38.4333C71.8375 38.2724 71.5937 38.1433 71.2965 38.0458C70.999 37.9484 70.597 37.841 70.0902 37.7241C69.3102 37.539 68.6719 37.3536 68.1748 37.1683C67.6775 36.9832 67.251 36.6857 66.8953 36.2764C66.5393 35.867 66.3615 35.321 66.3615 34.6387C66.3615 34.0443 66.5224 33.5055 66.8441 33.0229C67.1658 32.5403 67.6507 32.1578 68.299 31.875C68.9472 31.5923 69.7394 31.4509 70.675 31.4509C71.328 31.4509 71.9667 31.5291 72.5907 31.6849C73.2143 31.841 73.7603 32.0651 74.2282 32.3575L73.4971 34.1561C72.5513 33.6202 71.6058 33.3519 70.6604 33.3519C69.9975 33.3519 69.5078 33.4593 69.191 33.6735C68.8741 33.8882 68.7157 34.1708 68.7157 34.5216C68.7157 34.8727 68.8985 35.1336 69.2643 35.304C69.6295 35.4746 70.1876 35.6429 70.9382 35.8085C71.7179 35.9937 72.3565 36.179 72.8538 36.3641C73.3511 36.5493 73.7771 36.8418 74.1333 37.2415C74.4888 37.6412 74.6671 38.1823 74.6671 38.8645C74.6671 39.4495 74.5035 39.9833 74.177 40.4658C73.8505 40.9482 73.3604 41.3309 72.7074 41.6136C72.0544 41.8962 71.26 42.0376 70.3244 42.0376C69.5149 42.0376 68.7327 41.9281 67.9773 41.7086Z" fill="#FFFBF8"/>
<path d="M76.2906 31.6265H78.6595V39.9321H83.7921V41.8622H76.2906V31.6265Z" fill="#FFFBF8"/>
</svg>
