<svg width="1142" height="364" viewBox="0 0 1142 364" fill="none" xmlns="http://www.w3.org/2000/svg">
<g opacity="0.6">
<path d="M1 73.4255C92.7554 18.7715 323.351 -57.7441 511.691 73.4255C747.116 237.387 1056.79 147.026 1141 73.4255" stroke="black" stroke-opacity="0.03"/>
<path d="M1 81.3239C92.7554 26.67 323.351 -49.8456 511.691 81.3239C747.116 245.286 1056.79 154.924 1141 81.3239" stroke="black" stroke-opacity="0.03"/>
<path d="M1 89.2234C92.7554 34.5694 323.351 -41.9462 511.691 89.2234C747.116 253.185 1056.79 162.824 1141 89.2234" stroke="black" stroke-opacity="0.03"/>
<path d="M1 97.1223C92.7554 42.4683 323.351 -34.0473 511.691 97.1223C747.116 261.084 1056.79 170.723 1141 97.1223" stroke="black" stroke-opacity="0.03"/>
<path d="M1 105.02C92.7554 50.3657 323.351 -26.1498 511.691 105.02C747.116 268.982 1056.79 178.62 1141 105.02" stroke="black" stroke-opacity="0.03"/>
<path d="M1 112.919C92.7554 58.2647 323.351 -18.2509 511.691 112.919C747.116 276.881 1056.79 186.519 1141 112.919" stroke="black" stroke-opacity="0.03"/>
<path d="M1 120.818C92.7554 66.1641 323.351 -10.3515 511.691 120.818C747.116 284.78 1056.79 194.418 1141 120.818" stroke="black" stroke-opacity="0.03"/>
<path d="M1 128.717C92.7554 74.0625 323.351 -2.45305 511.691 128.717C747.116 292.678 1056.79 202.317 1141 128.717" stroke="black" stroke-opacity="0.03"/>
<path d="M1 136.615C92.7554 81.9615 323.351 5.44587 511.691 136.615C747.116 300.577 1056.79 210.216 1141 136.615" stroke="black" stroke-opacity="0.03"/>
<path d="M1 144.514C92.7554 89.8599 323.351 13.3443 511.691 144.514C747.116 308.476 1056.79 218.114 1141 144.514" stroke="black" stroke-opacity="0.03"/>
<path d="M1 152.413C92.7554 97.7593 323.351 21.2437 511.691 152.413C747.116 316.375 1056.79 226.014 1141 152.413" stroke="black" stroke-opacity="0.03"/>
<path d="M1 160.311C92.7554 105.657 323.351 29.1417 511.691 160.311C747.116 324.273 1056.79 233.912 1141 160.311" stroke="black" stroke-opacity="0.03"/>
<path d="M1 168.21C92.7554 113.556 323.351 37.0401 511.691 168.21C747.116 332.172 1056.79 241.81 1141 168.21" stroke="black" stroke-opacity="0.03"/>
<path d="M1 176.109C92.7554 121.455 323.351 44.939 511.691 176.109C747.116 340.071 1056.79 249.709 1141 176.109" stroke="black" stroke-opacity="0.03"/>
<path d="M1 184.008C92.7554 129.354 323.351 52.8385 511.691 184.008C747.116 347.97 1056.79 257.608 1141 184.008" stroke="black" stroke-opacity="0.03"/>
<path d="M1 191.906C92.7554 137.252 323.351 60.7369 511.691 191.906C747.116 355.868 1056.79 265.507 1141 191.906" stroke="black" stroke-opacity="0.03"/>
<path d="M1 199.805C92.7554 145.151 323.351 68.6358 511.691 199.805C747.116 363.767 1056.79 273.406 1141 199.805" stroke="black" stroke-opacity="0.03"/>
<path d="M1 207.704C92.7554 153.05 323.351 76.5343 511.691 207.704C747.116 371.666 1056.79 281.304 1141 207.704" stroke="black" stroke-opacity="0.03"/>
<path d="M1 215.602C92.7554 160.948 323.351 84.4327 511.691 215.602C747.116 379.564 1056.79 289.203 1141 215.602" stroke="black" stroke-opacity="0.03"/>
<path d="M1 223.501C92.7554 168.847 323.351 92.3316 511.691 223.501C747.116 387.463 1056.79 297.102 1141 223.501" stroke="black" stroke-opacity="0.03"/>
<path d="M1 231.4C92.7554 176.746 323.351 100.23 511.691 231.4C747.116 395.362 1056.79 305 1141 231.4" stroke="black" stroke-opacity="0.03"/>
<path d="M1 239.299C92.7554 184.645 323.351 108.129 511.691 239.299C747.116 403.261 1056.79 312.899 1141 239.299" stroke="black" stroke-opacity="0.03"/>
<path d="M1 247.197C92.7554 192.543 323.351 116.028 511.691 247.197C747.116 411.159 1056.79 320.798 1141 247.197" stroke="black" stroke-opacity="0.03"/>
<path d="M1 255.096C92.7554 200.442 323.351 123.927 511.691 255.096C747.116 419.058 1056.79 328.697 1141 255.096" stroke="black" stroke-opacity="0.03"/>
<path d="M1 262.995C92.7554 208.341 323.351 131.826 511.691 262.995C747.116 426.957 1056.79 336.596 1141 262.995" stroke="black" stroke-opacity="0.03"/>
<path d="M1 270.893C92.7554 216.239 323.351 139.723 511.691 270.893C747.116 434.855 1056.79 344.493 1141 270.893" stroke="black" stroke-opacity="0.03"/>
</g>
</svg>
