<svg width="180" height="41" viewBox="0 0 180 41" fill="none" xmlns="http://www.w3.org/2000/svg">
<path d="M48.8999 37.2949C48.6647 36.8316 48.547 36.2139 48.547 35.4031V20.2304L48.7039 12.2772L48.155 11.7367L38.197 13.8601V14.4006L38.7459 14.5551C39.4516 14.7095 39.9612 14.9411 40.2357 15.3272C40.5101 15.6747 40.6277 16.2924 40.6277 17.1418L40.3925 35.3645C39.5692 35.9436 38.7067 36.4069 37.8834 36.7158C37.0601 37.0246 36.1192 37.1791 35.0607 37.1791C34.0021 37.1791 33.1004 36.9088 32.434 36.3297C31.7283 35.7892 31.3754 34.9012 31.3754 33.7044V20.2304L31.6499 12.2772L31.101 11.7367L20.947 13.7057V14.2462L21.6135 14.4779C22.2408 14.6323 22.7112 14.9025 23.0249 15.25C23.3385 15.6361 23.4953 16.2538 23.4953 17.1032L23.3385 31.4652C23.2993 33.5114 23.6129 35.1715 24.3186 36.4069C25.0243 37.6424 25.9652 38.569 27.2198 39.1095C28.4351 39.65 29.8073 39.9588 31.297 39.9588C33.2573 39.9588 34.9823 39.6114 36.4328 38.9164C37.8834 38.2215 39.2556 37.3721 40.5101 36.3683L41.0198 39.65L50.9777 39.1095V38.6076L50.4289 38.4531C49.6056 38.1443 49.1351 37.7582 48.8999 37.2949Z" fill="#FFFBF8"/>
<path d="M79.8322 37.3721C79.2834 36.9088 78.7345 36.2911 78.1464 35.4803L67.9924 21.543L74.3436 15.6747C75.0493 15.0569 75.6765 14.555 76.1862 14.2076C76.6959 13.8601 77.3623 13.5512 78.1856 13.281L79.8714 12.8177V12.2772H71.4032V12.8177L72.3834 13.0879C73.1282 13.3196 73.4811 13.6671 73.3635 14.169C73.2851 14.6709 72.9714 15.1341 72.501 15.5974L61.9941 25.1721L72.1089 39.148H82.1061V38.6075L81.8709 38.4917C81.0476 38.1828 80.3811 37.7968 79.8322 37.3721Z" fill="#FFFBF8"/>
<path d="M61.955 35.5575V8.26199L62.0727 2.31644H51.1346L51.017 2.35504V2.89555L51.7619 3.04998C52.5067 3.28162 53.0556 3.59048 53.3692 3.93795C53.6829 4.32403 53.8397 4.86453 53.8397 5.59808V35.5189C53.8397 36.9474 53.2124 37.8354 51.9187 38.26L51.0562 38.5303V39.0708H64.621V38.6075L63.8369 38.3759C62.5823 37.9898 61.955 37.0632 61.955 35.5575Z" fill="#FFFBF8"/>
<path d="M99.9051 13.1266C97.788 12.0069 95.3965 11.4278 92.6914 11.4278C89.9863 11.4278 87.5948 12.0069 85.4386 13.1652C83.2823 14.3234 81.5965 15.9449 80.3812 18.0683C79.1658 20.1917 78.5386 22.7012 78.5386 25.6354C78.5386 28.531 79.1266 31.0791 80.2636 33.2411C81.4005 35.4031 83.0471 37.0632 85.1641 38.2601C87.2812 39.4183 89.7903 40.036 92.6522 40.036C95.5142 40.036 98.0233 39.4569 100.14 38.2601C102.257 37.1018 103.865 35.4417 105.041 33.2797C106.178 31.1177 106.766 28.6082 106.766 25.6354C106.766 22.7012 106.139 20.1531 104.923 18.0297C103.708 15.8677 102.022 14.2462 99.9051 13.1266ZM97.592 33.7816C97.2392 35.6734 96.6511 37.0246 95.867 37.7582C95.0829 38.4917 94.0244 38.8778 92.6914 38.8778C91.3585 38.8778 90.2999 38.4917 89.4767 37.7582C88.6534 37.0246 88.0653 35.6734 87.7124 33.7816C87.3596 31.8898 87.1636 29.1873 87.1636 25.7126C87.1636 22.1993 87.3596 19.4968 87.7124 17.605C88.0653 15.7133 88.6534 14.362 89.4767 13.6285C90.2999 12.8949 91.3585 12.5088 92.6914 12.5088C94.0244 12.5088 95.0829 12.8949 95.867 13.6285C96.6511 14.362 97.2392 15.7133 97.592 17.605C97.9448 19.4968 98.1409 22.1993 98.1409 25.7126C98.1409 29.1873 97.9448 31.8898 97.592 33.7816Z" fill="#FFFBF8"/>
<path d="M128.916 13.1266C126.799 12.0069 124.408 11.4278 121.703 11.4278C118.998 11.4278 116.606 12.0069 114.45 13.1652C112.294 14.3234 110.608 15.9449 109.393 18.0683C108.177 20.1917 107.55 22.7012 107.55 25.6354C107.55 28.531 108.138 31.0791 109.275 33.2411C110.412 35.4031 112.058 37.0632 114.176 38.2601C116.293 39.4183 118.802 40.036 121.664 40.036C124.526 40.036 127.035 39.4569 129.152 38.2601C131.269 37.1018 132.876 35.4417 134.052 33.2797C135.189 31.1177 135.777 28.6082 135.777 25.6354C135.777 22.7012 135.15 20.1531 133.935 18.0297C132.719 15.8677 131.033 14.2462 128.916 13.1266ZM126.603 33.7816C126.251 35.6734 125.662 37.0246 124.878 37.7582C124.094 38.4917 123.036 38.8778 121.703 38.8778C120.37 38.8778 119.311 38.4917 118.488 37.7582C117.665 37.0246 117.077 35.6734 116.724 33.7816C116.371 31.8898 116.175 29.1873 116.175 25.7126C116.175 22.1993 116.371 19.4968 116.724 17.605C117.077 15.7133 117.665 14.362 118.488 13.6285C119.311 12.8949 120.37 12.5088 121.703 12.5088C123.036 12.5088 124.094 12.8949 124.878 13.6285C125.662 14.362 126.251 15.7133 126.603 17.605C126.956 19.4968 127.152 22.1993 127.152 25.7126C127.152 29.1873 126.995 31.8898 126.603 33.7816Z" fill="#FFFBF8"/>
<path d="M163.965 35.6733V19.574C163.965 16.8329 163.299 14.7481 161.966 13.4354C160.633 12.0842 158.712 11.4278 156.203 11.4278C154.556 11.4278 152.91 11.8139 151.263 12.5474C149.577 13.281 148.088 14.2462 146.794 15.4044L146.323 12.0455L145.774 11.505L136.052 14.7481V15.2886L136.914 15.5202C137.659 15.6747 138.169 15.9449 138.443 16.331C138.718 16.7171 138.835 17.3348 138.835 18.1455V35.6347C138.835 37.1018 138.169 37.9898 136.836 38.3759L136.052 38.6075V39.148H149.381V38.6075L148.872 38.4531C147.539 38.067 146.872 37.179 146.872 35.712V16.6784C148.832 15.0569 150.675 14.2076 152.322 14.2076C154.752 14.2076 155.968 15.4044 155.968 17.7981V35.6347C155.968 37.0632 155.301 37.9512 153.968 38.3759L153.223 38.6075V39.148H166.631V38.6075L166.122 38.4531C164.671 38.067 163.965 37.1404 163.965 35.6733Z" fill="#FFFBF8"/>
<path d="M179.412 38.4145C178.706 38.1828 178.197 37.874 177.922 37.4107C177.648 36.9474 177.491 36.3683 177.491 35.6347V19.9601L177.648 12.0069L177.099 11.4664L166.71 14.7481V15.2886L167.494 15.443C168.239 15.5974 168.788 15.8677 169.062 16.2538C169.336 16.6398 169.493 17.219 169.493 18.0297V35.5189C169.493 36.2525 169.336 36.8702 169.062 37.2949C168.788 37.7582 168.239 38.067 167.494 38.2987L166.71 38.5303V39.0708H180V38.6075L179.412 38.4145Z" fill="#FFFBF8"/>
<path d="M6.63713 17.2962C4.36326 15.443 4.20644 14.0145 5.97065 11.7753C5.26497 12.1228 4.59849 12.4702 3.8536 12.8563C-0.53731 15.1342 -1.43902 22.0449 2.52065 24.9405C6.28429 27.6816 9.69509 30.886 13.3803 33.7816C15.1445 35.1715 15.9678 36.6385 14.4388 38.8392C20.0059 37.3335 22.0837 30.9632 18.2809 27.1797C14.6741 23.6278 10.5576 20.5392 6.63713 17.2962Z" fill="#FFFBF8"/>
<path d="M4.24577 30.7316C1.69748 30.8088 0.0900879 32.469 0.0900879 34.9785C0.0900879 37.4107 1.8935 39.2253 4.24577 39.2253C6.59805 39.1867 8.51907 37.1791 8.51907 34.7082C8.51907 32.5848 6.44123 30.693 4.24577 30.7316Z" fill="#EDA92A"/>
<path d="M18.5947 16.2151C18.7907 13.4354 17.4185 11.8525 14.5958 11.8139C12.7532 11.7753 10.8714 11.8139 8.63672 11.8139C12.1259 14.6708 15.3015 17.2575 18.5947 19.9601C18.5947 18.5702 18.5163 17.3734 18.5947 16.2151Z" fill="#FFFBF8"/>
<path d="M173.414 8.49365C174.707 8.49365 175.766 8.10758 176.668 7.29682C177.53 6.48606 177.961 5.48227 177.961 4.24683C177.961 2.97278 177.53 1.96898 176.668 1.15823C175.805 0.386075 174.707 0 173.414 0C172.12 0 171.022 0.386075 170.16 1.15823C169.258 1.93038 168.827 2.97278 168.827 4.24683C168.827 5.48227 169.258 6.48606 170.16 7.29682C171.022 8.10758 172.12 8.49365 173.414 8.49365Z" fill="#EDA92A"/>
</svg>
