<svg width="80" height="80" viewBox="0 0 80 80" fill="none" xmlns="http://www.w3.org/2000/svg">
<path d="M55.3637 32.4545C55.3637 38.7807 50.2353 43.9091 43.9091 43.9091C37.583 43.9091 32.4546 38.7807 32.4546 32.4545C32.4546 26.1284 37.583 21 43.9091 21C50.2353 21 55.3637 26.1284 55.3637 32.4545Z" fill="#EDA92A"/>
<path d="M61.4794 32.2397C61.4794 48.3884 48.3884 61.4794 32.2397 61.4794C16.0911 61.4794 3 48.3884 3 32.2397C3 16.0911 16.0911 3 32.2397 3C48.3884 3 61.4794 16.0911 61.4794 32.2397Z" stroke="white" stroke-width="5" stroke-linecap="round" stroke-linejoin="round"/>
<path d="M53.1252 53.125L68.5622 68.562" stroke="white" stroke-width="5" stroke-linecap="round" stroke-linejoin="round"/>
<path d="M74.2972 74.2971L76.9684 76.9683" stroke="white" stroke-width="5" stroke-linecap="round" stroke-linejoin="round"/>
</svg>
