<svg width="77" height="79" viewBox="0 0 77 79" fill="none" xmlns="http://www.w3.org/2000/svg">
<path d="M38.1892 66.8453C53.2579 66.8453 65.4734 54.6297 65.4734 39.5611C65.4734 24.4924 53.2579 12.2769 38.1892 12.2769C23.1206 12.2769 10.905 24.4924 10.905 39.5611C10.905 54.6297 23.1206 66.8453 38.1892 66.8453Z" fill="#EDA92A"/>
<path d="M25.7192 31.3043L38.9344 45.0041L70.5038 12.2769" stroke="white" stroke-width="5.36004" stroke-linecap="round" stroke-linejoin="round"/>
<path d="M49.92 3H12.7371C7.35949 3 3 7.37624 3 12.7746V66.3478C3 71.7461 7.35949 76.1223 12.7371 76.1223H19.98" stroke="white" stroke-width="5.36004" stroke-linecap="round" stroke-linejoin="round"/>
<path d="M43.7108 76.1223H61.9206C68.2486 76.1223 73.3784 70.9925 73.3784 64.6645V26.4585" stroke="white" stroke-width="5.36004" stroke-linecap="round" stroke-linejoin="round"/>
<path d="M29.7786 76.1223H33.9122" stroke="white" stroke-width="5.36004" stroke-linecap="round" stroke-linejoin="round"/>
</svg>
