<svg width="86" height="83" viewBox="0 0 86 83" fill="none" xmlns="http://www.w3.org/2000/svg">
<path d="M3 66.9924V22.8597C3 15.5476 8.92766 9.61991 16.2398 9.61991H70.2322C77.5443 9.61991 83.472 15.5476 83.472 22.8597V66.9924M3 66.9924C3 74.3046 8.92766 80.2323 16.2398 80.2323H70.2322C77.5443 80.2323 83.472 74.3046 83.472 66.9924M3 66.9924H16.2398M83.472 66.9924H35.606M19.7704 16.2398V3M66.7016 16.2398V3M24.3663 66.9924H27.5394" stroke="white" stroke-width="5" stroke-linecap="round" stroke-linejoin="round"/>
<path d="M64.8782 48.6773C69.2655 48.6773 72.8221 45.1207 72.8221 40.7334C72.8221 36.3462 69.2655 32.7896 64.8782 32.7896C60.4909 32.7896 56.9343 36.3462 56.9343 40.7334C56.9343 45.1207 60.4909 48.6773 64.8782 48.6773Z" fill="#EDA92A"/>
</svg>
