<svg width="150" height="18" viewBox="0 0 150 18" fill="none" xmlns="http://www.w3.org/2000/svg">
<path d="M6.402 17.352C5.72733 17.352 5.082 17.2567 4.466 17.066C3.85 16.8753 3.28533 16.5893 2.772 16.208C2.25867 15.8267 1.81133 15.3647 1.43 14.822C1.04867 14.2647 0.748 13.6193 0.528 12.886L3.322 11.786C3.52733 12.578 3.88667 13.238 4.4 13.766C4.91333 14.2793 5.588 14.536 6.424 14.536C6.732 14.536 7.02533 14.4993 7.304 14.426C7.59733 14.338 7.854 14.2207 8.074 14.074C8.30867 13.9127 8.492 13.7147 8.624 13.48C8.756 13.2453 8.822 12.974 8.822 12.666C8.822 12.3727 8.77067 12.1087 8.668 11.874C8.56533 11.6393 8.38933 11.4193 8.14 11.214C7.90533 11.0087 7.59 10.8107 7.194 10.62C6.81267 10.4293 6.336 10.2313 5.764 10.026L4.796 9.674C4.37067 9.52733 3.938 9.32933 3.498 9.08C3.07267 8.83067 2.684 8.53 2.332 8.178C1.98 7.826 1.68667 7.41533 1.452 6.946C1.232 6.462 1.122 5.91933 1.122 5.318C1.122 4.702 1.23933 4.13 1.474 3.602C1.72333 3.05933 2.068 2.59 2.508 2.194C2.96267 1.78333 3.498 1.468 4.114 1.248C4.74467 1.01333 5.44133 0.895999 6.204 0.895999C6.996 0.895999 7.678 1.006 8.25 1.226C8.83667 1.43133 9.328 1.70267 9.724 2.04C10.1347 2.36267 10.4647 2.722 10.714 3.118C10.9633 3.514 11.1467 3.888 11.264 4.24L8.646 5.34C8.49933 4.9 8.228 4.504 7.832 4.152C7.45067 3.8 6.92267 3.624 6.248 3.624C5.60267 3.624 5.06733 3.778 4.642 4.086C4.21667 4.37933 4.004 4.768 4.004 5.252C4.004 5.72133 4.20933 6.12467 4.62 6.462C5.03067 6.78467 5.68333 7.1 6.578 7.408L7.568 7.738C8.19867 7.958 8.77067 8.21467 9.284 8.508C9.812 8.78667 10.2593 9.124 10.626 9.52C11.0073 9.916 11.2933 10.3707 11.484 10.884C11.6893 11.3827 11.792 11.962 11.792 12.622C11.792 13.4433 11.6233 14.1547 11.286 14.756C10.9633 15.3427 10.5453 15.8267 10.032 16.208C9.51867 16.5893 8.93933 16.8753 8.294 17.066C7.64867 17.2567 7.018 17.352 6.402 17.352ZM15.4923 4.658C15.243 4.658 15.001 4.614 14.7663 4.526C14.5463 4.42333 14.3483 4.29133 14.1723 4.13C14.011 3.954 13.879 3.756 13.7763 3.536C13.6883 3.316 13.6443 3.074 13.6443 2.81C13.6443 2.546 13.6883 2.304 13.7763 2.084C13.879 1.864 14.011 1.67333 14.1723 1.512C14.3483 1.336 14.5463 1.204 14.7663 1.116C15.001 1.01333 15.243 0.961999 15.4923 0.961999C16.0056 0.961999 16.4456 1.14533 16.8123 1.512C17.179 1.864 17.3623 2.29667 17.3623 2.81C17.3623 3.32333 17.179 3.76333 16.8123 4.13C16.4456 4.482 16.0056 4.658 15.4923 4.658ZM14.0623 17V6.22H16.9443V17H14.0623ZM20.6602 8.684H18.7682V6.22H20.6602V2.92H23.5422V6.22H26.1822V8.684H23.5422V12.864C23.5422 13.1133 23.5642 13.348 23.6082 13.568C23.6669 13.7733 23.7696 13.9493 23.9162 14.096C24.1216 14.3307 24.4149 14.448 24.7962 14.448C25.0456 14.448 25.2436 14.426 25.3902 14.382C25.5369 14.3233 25.6762 14.25 25.8082 14.162L26.6222 16.692C26.2849 16.8533 25.9182 16.9707 25.5222 17.044C25.1409 17.132 24.7156 17.176 24.2462 17.176C23.7036 17.176 23.2122 17.0953 22.7722 16.934C22.3469 16.758 21.9876 16.5233 21.6942 16.23C21.0049 15.57 20.6602 14.6313 20.6602 13.414V8.684ZM38.4029 14.404C37.9042 15.284 37.2296 15.9953 36.3789 16.538C35.5429 17.0807 34.5162 17.352 33.2989 17.352C32.4776 17.352 31.7149 17.2127 31.0109 16.934C30.3216 16.6407 29.7202 16.2373 29.2069 15.724C28.6936 15.2107 28.2902 14.6093 27.9969 13.92C27.7182 13.216 27.5789 12.446 27.5789 11.61C27.5789 10.8327 27.7182 10.0993 27.9969 9.41C28.2756 8.706 28.6642 8.09733 29.1629 7.584C29.6616 7.056 30.2482 6.638 30.9229 6.33C31.6122 6.022 32.3676 5.868 33.1889 5.868C34.0542 5.868 34.8242 6.01467 35.4989 6.308C36.1736 6.58667 36.7382 6.98267 37.1929 7.496C37.6476 7.99467 37.9922 8.58867 38.2269 9.278C38.4616 9.96733 38.5789 10.7153 38.5789 11.522C38.5789 11.6247 38.5789 11.7127 38.5789 11.786C38.5642 11.874 38.5569 11.9547 38.5569 12.028C38.5422 12.1013 38.5349 12.182 38.5349 12.27H30.4169C30.4756 12.71 30.5929 13.0913 30.7689 13.414C30.9596 13.722 31.1869 13.986 31.4509 14.206C31.7296 14.4113 32.0302 14.5653 32.3529 14.668C32.6756 14.756 33.0056 14.8 33.3429 14.8C34.0029 14.8 34.5456 14.6533 34.9709 14.36C35.4109 14.052 35.7556 13.6707 36.0049 13.216L38.4029 14.404ZM35.7849 10.224C35.7702 10.0333 35.7042 9.82067 35.5869 9.586C35.4842 9.35133 35.3229 9.13133 35.1029 8.926C34.8976 8.72067 34.6336 8.552 34.3109 8.42C34.0029 8.288 33.6289 8.222 33.1889 8.222C32.5729 8.222 32.0302 8.398 31.5609 8.75C31.0916 9.102 30.7616 9.59333 30.5709 10.224H35.7849ZM47.9595 7.628H48.1355C48.4728 7.08533 48.9275 6.66 49.4995 6.352C50.0715 6.02933 50.7242 5.868 51.4575 5.868C52.1322 5.868 52.7262 5.978 53.2395 6.198C53.7528 6.418 54.1708 6.73333 54.4935 7.144C54.8308 7.54 55.0802 8.024 55.2415 8.596C55.4175 9.15333 55.5055 9.77667 55.5055 10.466V17H52.6235V10.818C52.6235 10.0407 52.4475 9.46867 52.0955 9.102C51.7582 8.72067 51.2595 8.53 50.5995 8.53C50.2035 8.53 49.8515 8.618 49.5435 8.794C49.2502 8.95533 48.9935 9.18267 48.7735 9.476C48.5682 9.75467 48.4068 10.092 48.2895 10.488C48.1868 10.8693 48.1355 11.28 48.1355 11.72V17H45.2535V6.22H47.9595V7.628ZM64.4229 15.856H64.2469C63.9095 16.2667 63.4989 16.6187 63.0149 16.912C62.5455 17.2053 61.9369 17.352 61.1889 17.352C60.6315 17.352 60.1035 17.2567 59.6049 17.066C59.1209 16.89 58.6955 16.6407 58.3289 16.318C57.9622 15.9953 57.6762 15.6067 57.4709 15.152C57.2655 14.6973 57.1629 14.1987 57.1629 13.656C57.1629 13.0987 57.2729 12.6 57.4929 12.16C57.7129 11.7053 58.0209 11.3167 58.4169 10.994C58.8129 10.6713 59.2749 10.4293 59.8029 10.268C60.3455 10.092 60.9322 10.004 61.5629 10.004C62.2669 10.004 62.8462 10.0627 63.3009 10.18C63.7555 10.2827 64.1295 10.3927 64.4229 10.51V10.18C64.4229 9.608 64.1955 9.13867 63.7409 8.772C63.2862 8.39067 62.7215 8.2 62.0469 8.2C61.0495 8.2 60.2062 8.618 59.5169 9.454L57.4269 8.024C58.5709 6.58667 60.1329 5.868 62.1129 5.868C63.7849 5.868 65.0609 6.264 65.9409 7.056C66.8209 7.83333 67.2609 8.992 67.2609 10.532V17H64.4229V15.856ZM64.4229 12.622C64.0855 12.4607 63.7335 12.336 63.3669 12.248C63.0149 12.1453 62.6262 12.094 62.2009 12.094C61.5115 12.094 60.9762 12.248 60.5949 12.556C60.2282 12.8493 60.0449 13.216 60.0449 13.656C60.0449 14.096 60.2209 14.448 60.5729 14.712C60.9395 14.976 61.3575 15.108 61.8269 15.108C62.2082 15.108 62.5602 15.042 62.8829 14.91C63.2055 14.7633 63.4769 14.58 63.6969 14.36C63.9315 14.1253 64.1075 13.8613 64.2249 13.568C64.3569 13.26 64.4229 12.9447 64.4229 12.622ZM69.5523 6.22H72.2583V7.628H72.4343C72.7716 7.1 73.2263 6.67467 73.7983 6.352C74.385 6.02933 75.0303 5.868 75.7343 5.868C76.5556 5.868 77.245 6.05867 77.8023 6.44C78.3596 6.82133 78.7556 7.29067 78.9903 7.848C79.3276 7.30533 79.8043 6.84333 80.4203 6.462C81.0363 6.066 81.7843 5.868 82.6643 5.868C83.3243 5.868 83.8963 5.978 84.3803 6.198C84.8643 6.40333 85.2603 6.69667 85.5683 7.078C85.891 7.45933 86.133 7.92133 86.2943 8.464C86.4556 8.992 86.5363 9.57133 86.5363 10.202V17H83.6543V10.73C83.6543 9.26333 83.053 8.53 81.8503 8.53C81.469 8.53 81.1316 8.618 80.8383 8.794C80.545 8.95533 80.2956 9.18267 80.0903 9.476C79.8996 9.75467 79.7456 10.092 79.6283 10.488C79.5256 10.884 79.4743 11.3093 79.4743 11.764V17H76.5923V10.73C76.5923 9.26333 75.9616 8.53 74.7003 8.53C74.3336 8.53 74.011 8.618 73.7323 8.794C73.4536 8.95533 73.219 9.18267 73.0283 9.476C72.8376 9.75467 72.691 10.092 72.5883 10.488C72.4856 10.884 72.4343 11.3093 72.4343 11.764V17H69.5523V6.22ZM99.1177 14.404C98.6191 15.284 97.9444 15.9953 97.0937 16.538C96.2577 17.0807 95.2311 17.352 94.0137 17.352C93.1924 17.352 92.4297 17.2127 91.7257 16.934C91.0364 16.6407 90.4351 16.2373 89.9217 15.724C89.4084 15.2107 89.0051 14.6093 88.7117 13.92C88.4331 13.216 88.2937 12.446 88.2937 11.61C88.2937 10.8327 88.4331 10.0993 88.7117 9.41C88.9904 8.706 89.3791 8.09733 89.8777 7.584C90.3764 7.056 90.9631 6.638 91.6377 6.33C92.3271 6.022 93.0824 5.868 93.9037 5.868C94.7691 5.868 95.5391 6.01467 96.2137 6.308C96.8884 6.58667 97.4531 6.98267 97.9077 7.496C98.3624 7.99467 98.7071 8.58867 98.9417 9.278C99.1764 9.96733 99.2937 10.7153 99.2937 11.522C99.2937 11.6247 99.2937 11.7127 99.2937 11.786C99.2791 11.874 99.2717 11.9547 99.2717 12.028C99.2571 12.1013 99.2497 12.182 99.2497 12.27H91.1317C91.1904 12.71 91.3077 13.0913 91.4837 13.414C91.6744 13.722 91.9017 13.986 92.1657 14.206C92.4444 14.4113 92.7451 14.5653 93.0677 14.668C93.3904 14.756 93.7204 14.8 94.0577 14.8C94.7177 14.8 95.2604 14.6533 95.6857 14.36C96.1257 14.052 96.4704 13.6707 96.7197 13.216L99.1177 14.404ZM96.4997 10.224C96.4851 10.0333 96.4191 9.82067 96.3017 9.586C96.1991 9.35133 96.0377 9.13133 95.8177 8.926C95.6124 8.72067 95.3484 8.552 95.0257 8.42C94.7177 8.288 94.3437 8.222 93.9037 8.222C93.2877 8.222 92.7451 8.398 92.2757 8.75C91.8064 9.102 91.4764 9.59333 91.2857 10.224H96.4997ZM105.968 1.248H108.85V5.67L108.674 7.628H108.85C109.158 7.11467 109.598 6.69667 110.17 6.374C110.757 6.03667 111.41 5.868 112.128 5.868C113.522 5.868 114.548 6.27867 115.208 7.1C115.883 7.92133 116.22 9.04333 116.22 10.466V17H113.338V10.818C113.338 10.07 113.162 9.50533 112.81 9.124C112.458 8.728 111.967 8.53 111.336 8.53C110.94 8.53 110.588 8.618 110.28 8.794C109.972 8.95533 109.708 9.18267 109.488 9.476C109.283 9.76933 109.122 10.114 109.004 10.51C108.902 10.8913 108.85 11.302 108.85 11.742V17H105.968V1.248ZM128.809 14.404C128.31 15.284 127.636 15.9953 126.785 16.538C125.949 17.0807 124.922 17.352 123.705 17.352C122.884 17.352 122.121 17.2127 121.417 16.934C120.728 16.6407 120.126 16.2373 119.613 15.724C119.1 15.2107 118.696 14.6093 118.403 13.92C118.124 13.216 117.985 12.446 117.985 11.61C117.985 10.8327 118.124 10.0993 118.403 9.41C118.682 8.706 119.07 8.09733 119.569 7.584C120.068 7.056 120.654 6.638 121.329 6.33C122.018 6.022 122.774 5.868 123.595 5.868C124.46 5.868 125.23 6.01467 125.905 6.308C126.58 6.58667 127.144 6.98267 127.599 7.496C128.054 7.99467 128.398 8.58867 128.633 9.278C128.868 9.96733 128.985 10.7153 128.985 11.522C128.985 11.6247 128.985 11.7127 128.985 11.786C128.97 11.874 128.963 11.9547 128.963 12.028C128.948 12.1013 128.941 12.182 128.941 12.27H120.823C120.882 12.71 120.999 13.0913 121.175 13.414C121.366 13.722 121.593 13.986 121.857 14.206C122.136 14.4113 122.436 14.5653 122.759 14.668C123.082 14.756 123.412 14.8 123.749 14.8C124.409 14.8 124.952 14.6533 125.377 14.36C125.817 14.052 126.162 13.6707 126.411 13.216L128.809 14.404ZM126.191 10.224C126.176 10.0333 126.11 9.82067 125.993 9.586C125.89 9.35133 125.729 9.13133 125.509 8.926C125.304 8.72067 125.04 8.552 124.717 8.42C124.409 8.288 124.035 8.222 123.595 8.222C122.979 8.222 122.436 8.398 121.967 8.75C121.498 9.102 121.168 9.59333 120.977 10.224H126.191ZM130.826 6.22H133.532V7.716H133.708C133.84 7.452 134.016 7.21 134.236 6.99C134.456 6.77 134.698 6.57933 134.962 6.418C135.24 6.25667 135.534 6.132 135.842 6.044C136.164 5.956 136.48 5.912 136.788 5.912C137.169 5.912 137.492 5.94867 137.756 6.022C138.034 6.09533 138.269 6.19067 138.46 6.308L137.69 8.926C137.514 8.838 137.316 8.772 137.096 8.728C136.89 8.66933 136.634 8.64 136.326 8.64C135.93 8.64 135.57 8.72067 135.248 8.882C134.925 9.02867 134.646 9.24133 134.412 9.52C134.192 9.79867 134.016 10.1287 133.884 10.51C133.766 10.8767 133.708 11.28 133.708 11.72V17H130.826V6.22ZM149.327 14.404C148.828 15.284 148.153 15.9953 147.303 16.538C146.467 17.0807 145.44 17.352 144.223 17.352C143.401 17.352 142.639 17.2127 141.935 16.934C141.245 16.6407 140.644 16.2373 140.131 15.724C139.617 15.2107 139.214 14.6093 138.921 13.92C138.642 13.216 138.503 12.446 138.503 11.61C138.503 10.8327 138.642 10.0993 138.921 9.41C139.199 8.706 139.588 8.09733 140.087 7.584C140.585 7.056 141.172 6.638 141.847 6.33C142.536 6.022 143.291 5.868 144.113 5.868C144.978 5.868 145.748 6.01467 146.423 6.308C147.097 6.58667 147.662 6.98267 148.117 7.496C148.571 7.99467 148.916 8.58867 149.151 9.278C149.385 9.96733 149.503 10.7153 149.503 11.522C149.503 11.6247 149.503 11.7127 149.503 11.786C149.488 11.874 149.481 11.9547 149.481 12.028C149.466 12.1013 149.459 12.182 149.459 12.27H141.341C141.399 12.71 141.517 13.0913 141.693 13.414C141.883 13.722 142.111 13.986 142.375 14.206C142.653 14.4113 142.954 14.5653 143.277 14.668C143.599 14.756 143.929 14.8 144.267 14.8C144.927 14.8 145.469 14.6533 145.895 14.36C146.335 14.052 146.679 13.6707 146.929 13.216L149.327 14.404ZM146.709 10.224C146.694 10.0333 146.628 9.82067 146.511 9.586C146.408 9.35133 146.247 9.13133 146.027 8.926C145.821 8.72067 145.557 8.552 145.235 8.42C144.927 8.288 144.553 8.222 144.113 8.222C143.497 8.222 142.954 8.398 142.485 8.75C142.015 9.102 141.685 9.59333 141.495 10.224H146.709Z" fill="white"/>
</svg>
