<svg width="42" height="48" viewBox="0 0 42 48" fill="none" xmlns="http://www.w3.org/2000/svg">
<path d="M31.8328 11.8651C30.8994 11.8651 30.1349 11.1105 30.1349 10.1672V0H9.80042C6.99053 0 4.7168 2.27373 4.7168 5.08362V42.3668C4.7168 45.1767 6.99053 47.4504 9.80042 47.4504H36.9164C39.7263 47.4504 42 45.1767 42 42.3668V11.8651H31.8328Z" fill="#B0D1FF"/>
<path d="M32 0.550415V10.1079H41.5702L32 0.550415Z" fill="#B0D1FF"/>
<rect y="24.5504" width="34" height="17" fill="#498E12"/>
<path d="M9.51016 32.8104L7.34016 29.3904H9.01016L10.4002 31.7304H10.4802L11.8702 29.3904H13.5402L11.3702 32.8104L13.7202 36.5504H12.0402L10.4802 33.9704H10.4002L8.84016 36.5504H7.16016L9.51016 32.8104Z" fill="white"/>
<path d="M14.6049 29.3904H15.9549V35.2704H18.9849V36.5504H14.6049V29.3904Z" fill="white"/>
<path d="M22.1367 36.7104C21.8301 36.7104 21.5367 36.6671 21.2567 36.5804C20.9767 36.4937 20.7201 36.3637 20.4867 36.1904C20.2534 36.0171 20.0501 35.8071 19.8767 35.5604C19.7034 35.3071 19.5667 35.0137 19.4667 34.6804L20.7367 34.1804C20.8301 34.5404 20.9934 34.8404 21.2267 35.0804C21.4601 35.3137 21.7667 35.4304 22.1467 35.4304C22.2867 35.4304 22.4201 35.4137 22.5467 35.3804C22.6801 35.3404 22.7967 35.2871 22.8967 35.2204C23.0034 35.1471 23.0867 35.0571 23.1467 34.9504C23.2067 34.8437 23.2367 34.7204 23.2367 34.5804C23.2367 34.4471 23.2134 34.3271 23.1667 34.2204C23.1201 34.1137 23.0401 34.0137 22.9267 33.9204C22.8201 33.8271 22.6767 33.7371 22.4967 33.6504C22.3234 33.5637 22.1067 33.4737 21.8467 33.3804L21.4067 33.2204C21.2134 33.1537 21.0167 33.0637 20.8167 32.9504C20.6234 32.8371 20.4467 32.7004 20.2867 32.5404C20.1267 32.3804 19.9934 32.1937 19.8867 31.9804C19.7867 31.7604 19.7367 31.5137 19.7367 31.2404C19.7367 30.9604 19.7901 30.7004 19.8967 30.4604C20.0101 30.2137 20.1667 30.0004 20.3667 29.8204C20.5734 29.6337 20.8167 29.4904 21.0967 29.3904C21.3834 29.2837 21.7001 29.2304 22.0467 29.2304C22.4067 29.2304 22.7167 29.2804 22.9767 29.3804C23.2434 29.4737 23.4667 29.5971 23.6467 29.7504C23.8334 29.8971 23.9834 30.0604 24.0967 30.2404C24.2101 30.4204 24.2934 30.5904 24.3467 30.7504L23.1567 31.2504C23.0901 31.0504 22.9667 30.8704 22.7867 30.7104C22.6134 30.5504 22.3734 30.4704 22.0667 30.4704C21.7734 30.4704 21.5301 30.5404 21.3367 30.6804C21.1434 30.8137 21.0467 30.9904 21.0467 31.2104C21.0467 31.4237 21.1401 31.6071 21.3267 31.7604C21.5134 31.9071 21.8101 32.0504 22.2167 32.1904L22.6667 32.3404C22.9534 32.4404 23.2134 32.5571 23.4467 32.6904C23.6867 32.8171 23.8901 32.9704 24.0567 33.1504C24.2301 33.3304 24.3601 33.5371 24.4467 33.7704C24.5401 33.9971 24.5867 34.2604 24.5867 34.5604C24.5867 34.9337 24.5101 35.2571 24.3567 35.5304C24.2101 35.7971 24.0201 36.0171 23.7867 36.1904C23.5534 36.3637 23.2901 36.4937 22.9967 36.5804C22.7034 36.6671 22.4167 36.7104 22.1367 36.7104Z" fill="white"/>
</svg>
