<svg width="42" height="48" viewBox="0 0 42 48" fill="none" xmlns="http://www.w3.org/2000/svg">
<path d="M31.8328 11.8651C30.8994 11.8651 30.1349 11.1105 30.1349 10.1672V0H9.80042C6.99053 0 4.7168 2.27373 4.7168 5.08362V42.3668C4.7168 45.1767 6.99053 47.4504 9.80042 47.4504H36.9164C39.7263 47.4504 42 45.1767 42 42.3668V11.8651H31.8328Z" fill="#B0D1FF"/>
<path d="M32 0.550415V10.1079H41.5702L32 0.550415Z" fill="#B0D1FF"/>
<rect y="24.5504" width="34" height="17" fill="#00ACF6"/>
<path d="M12.9801 35.4004C12.6268 35.8271 12.2101 36.1537 11.7301 36.3804C11.2501 36.6004 10.7135 36.7104 10.1201 36.7104C9.58678 36.7104 9.09012 36.6137 8.63012 36.4204C8.17678 36.2271 7.78345 35.9637 7.45012 35.6304C7.11678 35.2971 6.85345 34.9037 6.66012 34.4504C6.46678 33.9904 6.37012 33.4971 6.37012 32.9704C6.37012 32.4437 6.46678 31.9537 6.66012 31.5004C6.85345 31.0404 7.11678 30.6437 7.45012 30.3104C7.78345 29.9771 8.17678 29.7137 8.63012 29.5204C9.09012 29.3271 9.58678 29.2304 10.1201 29.2304C10.6935 29.2304 11.1968 29.3304 11.6301 29.5304C12.0701 29.7304 12.4601 30.0204 12.8001 30.4004L11.8501 31.3204C11.6368 31.0737 11.3901 30.8771 11.1101 30.7304C10.8368 30.5837 10.5101 30.5104 10.1301 30.5104C9.79678 30.5104 9.48345 30.5704 9.19012 30.6904C8.89678 30.8037 8.64012 30.9671 8.42012 31.1804C8.20678 31.3937 8.03678 31.6537 7.91012 31.9604C7.78345 32.2604 7.72012 32.5971 7.72012 32.9704C7.72012 33.3437 7.78345 33.6837 7.91012 33.9904C8.03678 34.2904 8.20678 34.5471 8.42012 34.7604C8.64012 34.9737 8.89678 35.1404 9.19012 35.2604C9.48345 35.3737 9.79678 35.4304 10.1301 35.4304C10.5301 35.4304 10.8835 35.3504 11.1901 35.1904C11.5035 35.0237 11.7801 34.7904 12.0201 34.4904L12.9801 35.4004Z" fill="white"/>
<path d="M16.2539 36.7104C15.9472 36.7104 15.6539 36.6671 15.3739 36.5804C15.0939 36.4937 14.8372 36.3637 14.6039 36.1904C14.3705 36.0171 14.1672 35.8071 13.9939 35.5604C13.8205 35.3071 13.6839 35.0137 13.5839 34.6804L14.8539 34.1804C14.9472 34.5404 15.1105 34.8404 15.3439 35.0804C15.5772 35.3137 15.8839 35.4304 16.2639 35.4304C16.4039 35.4304 16.5372 35.4137 16.6639 35.3804C16.7972 35.3404 16.9139 35.2871 17.0139 35.2204C17.1205 35.1471 17.2039 35.0571 17.2639 34.9504C17.3239 34.8437 17.3539 34.7204 17.3539 34.5804C17.3539 34.4471 17.3305 34.3271 17.2839 34.2204C17.2372 34.1137 17.1572 34.0137 17.0439 33.9204C16.9372 33.8271 16.7939 33.7371 16.6139 33.6504C16.4405 33.5637 16.2239 33.4737 15.9639 33.3804L15.5239 33.2204C15.3305 33.1537 15.1339 33.0637 14.9339 32.9504C14.7405 32.8371 14.5639 32.7004 14.4039 32.5404C14.2439 32.3804 14.1105 32.1937 14.0039 31.9804C13.9039 31.7604 13.8539 31.5137 13.8539 31.2404C13.8539 30.9604 13.9072 30.7004 14.0139 30.4604C14.1272 30.2137 14.2839 30.0004 14.4839 29.8204C14.6905 29.6337 14.9339 29.4904 15.2139 29.3904C15.5005 29.2837 15.8172 29.2304 16.1639 29.2304C16.5239 29.2304 16.8339 29.2804 17.0939 29.3804C17.3605 29.4737 17.5839 29.5971 17.7639 29.7504C17.9505 29.8971 18.1005 30.0604 18.2139 30.2404C18.3272 30.4204 18.4105 30.5904 18.4639 30.7504L17.2739 31.2504C17.2072 31.0504 17.0839 30.8704 16.9039 30.7104C16.7305 30.5504 16.4905 30.4704 16.1839 30.4704C15.8905 30.4704 15.6472 30.5404 15.4539 30.6804C15.2605 30.8137 15.1639 30.9904 15.1639 31.2104C15.1639 31.4237 15.2572 31.6071 15.4439 31.7604C15.6305 31.9071 15.9272 32.0504 16.3339 32.1904L16.7839 32.3404C17.0705 32.4404 17.3305 32.5571 17.5639 32.6904C17.8039 32.8171 18.0072 32.9704 18.1739 33.1504C18.3472 33.3304 18.4772 33.5371 18.5639 33.7704C18.6572 33.9971 18.7039 34.2604 18.7039 34.5604C18.7039 34.9337 18.6272 35.2571 18.4739 35.5304C18.3272 35.7971 18.1372 36.0171 17.9039 36.1904C17.6705 36.3637 17.4072 36.4937 17.1139 36.5804C16.8205 36.6671 16.5339 36.7104 16.2539 36.7104Z" fill="white"/>
<path d="M19.1182 29.3904H20.5782L22.0582 33.7004L22.3182 34.6204H22.3982L22.6782 33.7004L24.2182 29.3904H25.6782L23.0682 36.5504H21.6482L19.1182 29.3904Z" fill="white"/>
</svg>
