<svg width="42" height="48" viewBox="0 0 42 48" fill="none" xmlns="http://www.w3.org/2000/svg">
<path d="M31.8328 11.8651C30.8994 11.8651 30.1349 11.1105 30.1349 10.1672V0H9.80042C6.99053 0 4.7168 2.27373 4.7168 5.08362V42.3668C4.7168 45.1767 6.99053 47.4504 9.80042 47.4504H36.9164C39.7263 47.4504 42 45.1767 42 42.3668V11.8651H31.8328Z" fill="#B0D1FF"/>
<path d="M32 0.550415V10.1079H41.5702L32 0.550415Z" fill="#B0D1FF"/>
<rect y="24.5504" width="34" height="17" fill="#3246D3"/>
<path d="M9.98012 35.4004C9.62678 35.8271 9.21012 36.1537 8.73012 36.3804C8.25012 36.6004 7.71345 36.7104 7.12012 36.7104C6.58678 36.7104 6.09012 36.6137 5.63012 36.4204C5.17678 36.2271 4.78345 35.9637 4.45012 35.6304C4.11678 35.2971 3.85345 34.9037 3.66012 34.4504C3.46678 33.9904 3.37012 33.4971 3.37012 32.9704C3.37012 32.4437 3.46678 31.9537 3.66012 31.5004C3.85345 31.0404 4.11678 30.6437 4.45012 30.3104C4.78345 29.9771 5.17678 29.7137 5.63012 29.5204C6.09012 29.3271 6.58678 29.2304 7.12012 29.2304C7.69345 29.2304 8.19678 29.3304 8.63012 29.5304C9.07012 29.7304 9.46012 30.0204 9.80012 30.4004L8.85012 31.3204C8.63678 31.0737 8.39012 30.8771 8.11012 30.7304C7.83678 30.5837 7.51012 30.5104 7.13012 30.5104C6.79678 30.5104 6.48345 30.5704 6.19012 30.6904C5.89678 30.8037 5.64012 30.9671 5.42012 31.1804C5.20678 31.3937 5.03678 31.6537 4.91012 31.9604C4.78345 32.2604 4.72012 32.5971 4.72012 32.9704C4.72012 33.3437 4.78345 33.6837 4.91012 33.9904C5.03678 34.2904 5.20678 34.5471 5.42012 34.7604C5.64012 34.9737 5.89678 35.1404 6.19012 35.2604C6.48345 35.3737 6.79678 35.4304 7.13012 35.4304C7.53012 35.4304 7.88345 35.3504 8.19012 35.1904C8.50345 35.0237 8.78012 34.7904 9.02012 34.4904L9.98012 35.4004Z" fill="white"/>
<path d="M14.3562 36.7104C13.8229 36.7104 13.3262 36.6137 12.8662 36.4204C12.4129 36.2271 12.0195 35.9637 11.6862 35.6304C11.3529 35.2904 11.0895 34.8937 10.8962 34.4404C10.7095 33.9804 10.6162 33.4904 10.6162 32.9704C10.6162 32.4504 10.7095 31.9637 10.8962 31.5104C11.0895 31.0504 11.3529 30.6537 11.6862 30.3204C12.0195 29.9804 12.4129 29.7137 12.8662 29.5204C13.3262 29.3271 13.8229 29.2304 14.3562 29.2304C14.8895 29.2304 15.3829 29.3271 15.8362 29.5204C16.2962 29.7137 16.6929 29.9804 17.0262 30.3204C17.3595 30.6537 17.6195 31.0504 17.8062 31.5104C17.9995 31.9637 18.0962 32.4504 18.0962 32.9704C18.0962 33.4904 17.9995 33.9804 17.8062 34.4404C17.6195 34.8937 17.3595 35.2904 17.0262 35.6304C16.6929 35.9637 16.2962 36.2271 15.8362 36.4204C15.3829 36.6137 14.8895 36.7104 14.3562 36.7104ZM14.3562 35.4304C14.6895 35.4304 14.9995 35.3704 15.2862 35.2504C15.5795 35.1304 15.8329 34.9637 16.0462 34.7504C16.2662 34.5371 16.4362 34.2804 16.5562 33.9804C16.6829 33.6737 16.7462 33.3371 16.7462 32.9704C16.7462 32.6037 16.6829 32.2704 16.5562 31.9704C16.4362 31.6637 16.2662 31.4037 16.0462 31.1904C15.8329 30.9771 15.5795 30.8104 15.2862 30.6904C14.9995 30.5704 14.6895 30.5104 14.3562 30.5104C14.0229 30.5104 13.7095 30.5704 13.4162 30.6904C13.1295 30.8104 12.8762 30.9771 12.6562 31.1904C12.4429 31.4037 12.2729 31.6637 12.1462 31.9704C12.0262 32.2704 11.9662 32.6037 11.9662 32.9704C11.9662 33.3371 12.0262 33.6737 12.1462 33.9804C12.2729 34.2804 12.4429 34.5371 12.6562 34.7504C12.8762 34.9637 13.1295 35.1304 13.4162 35.2504C13.7095 35.3704 14.0229 35.4304 14.3562 35.4304Z" fill="white"/>
<path d="M19.1889 36.5504V29.3904H21.7089C22.0489 29.3904 22.3655 29.4471 22.6589 29.5604C22.9589 29.6671 23.2189 29.8204 23.4389 30.0204C23.6589 30.2204 23.8322 30.4604 23.9589 30.7404C24.0855 31.0137 24.1489 31.3171 24.1489 31.6504C24.1489 31.9904 24.0855 32.3004 23.9589 32.5804C23.8322 32.8537 23.6589 33.0904 23.4389 33.2904C23.2189 33.4904 22.9589 33.6471 22.6589 33.7604C22.3655 33.8671 22.0489 33.9204 21.7089 33.9204H20.5389V36.5504H19.1889ZM21.7289 32.6404C22.0822 32.6404 22.3489 32.5404 22.5289 32.3404C22.7089 32.1404 22.7989 31.9104 22.7989 31.6504C22.7989 31.5237 22.7755 31.4004 22.7289 31.2804C22.6889 31.1604 22.6222 31.0571 22.5289 30.9704C22.4422 30.8771 22.3322 30.8037 22.1989 30.7504C22.0655 30.6971 21.9089 30.6704 21.7289 30.6704H20.5389V32.6404H21.7289Z" fill="white"/>
<path d="M26.6141 33.2204L24.2041 29.3904H25.8141L27.2441 31.7604H27.3241L28.7041 29.3904H30.3341L27.9641 33.2204V36.5504H26.6141V33.2204Z" fill="white"/>
</svg>
