<svg width="24" height="24" viewBox="0 0 24 24" fill="none" xmlns="http://www.w3.org/2000/svg">
<path fill-rule="evenodd" clip-rule="evenodd" d="M12.0001 2.16094C15.2063 2.16094 15.586 2.175 16.8469 2.23125C18.0188 2.28281 18.6516 2.47969 19.0735 2.64375C19.6313 2.85938 20.0344 3.12187 20.4516 3.53906C20.8735 3.96094 21.1313 4.35938 21.3469 4.91719C21.511 5.33906 21.7079 5.97656 21.7594 7.14375C21.8157 8.40937 21.8297 8.78906 21.8297 11.9906C21.8297 15.1969 21.8157 15.5766 21.7594 16.8375C21.7079 18.0094 21.511 18.6422 21.3469 19.0641C21.1313 19.6219 20.8688 20.025 20.4516 20.4422C20.0297 20.8641 19.6313 21.1219 19.0735 21.3375C18.6516 21.5016 18.0141 21.6984 16.8469 21.75C15.5813 21.8062 15.2016 21.8203 12.0001 21.8203C8.79381 21.8203 8.41412 21.8062 7.15319 21.75C5.98131 21.6984 5.3485 21.5016 4.92662 21.3375C4.36881 21.1219 3.96569 20.8594 3.5485 20.4422C3.12662 20.0203 2.86881 19.6219 2.65319 19.0641C2.48912 18.6422 2.29225 18.0047 2.24069 16.8375C2.18444 15.5719 2.17037 15.1922 2.17037 11.9906C2.17037 8.78437 2.18444 8.40469 2.24069 7.14375C2.29225 5.97187 2.48912 5.33906 2.65319 4.91719C2.86881 4.35938 3.13131 3.95625 3.5485 3.53906C3.97037 3.11719 4.36881 2.85938 4.92662 2.64375C5.3485 2.47969 5.986 2.28281 7.15319 2.23125C8.41412 2.175 8.79381 2.16094 12.0001 2.16094ZM12.0001 0C8.74225 0 8.33444 0.0140625 7.05475 0.0703125C5.77975 0.126562 4.90319 0.332812 4.14381 0.628125C3.35162 0.9375 2.68131 1.34531 2.01569 2.01562C1.34537 2.68125 0.937561 3.35156 0.628186 4.13906C0.332873 4.90313 0.126624 5.775 0.0703735 7.05C0.0141235 8.33437 6.10352e-05 8.74219 6.10352e-05 12C6.10352e-05 15.2578 0.0141235 15.6656 0.0703735 16.9453C0.126624 18.2203 0.332873 19.0969 0.628186 19.8562C0.937561 20.6484 1.34537 21.3187 2.01569 21.9844C2.68131 22.65 3.35162 23.0625 4.13912 23.3672C4.90319 23.6625 5.77506 23.8687 7.05006 23.925C8.32975 23.9812 8.73756 23.9953 11.9954 23.9953C15.2532 23.9953 15.661 23.9812 16.9407 23.925C18.2157 23.8687 19.0922 23.6625 19.8516 23.3672C20.6391 23.0625 21.3094 22.65 21.9751 21.9844C22.6407 21.3187 23.0532 20.6484 23.3579 19.8609C23.6532 19.0969 23.8594 18.225 23.9157 16.95C23.9719 15.6703 23.986 15.2625 23.986 12.0047C23.986 8.74687 23.9719 8.33906 23.9157 7.05937C23.8594 5.78437 23.6532 4.90781 23.3579 4.14844C23.0626 3.35156 22.6547 2.68125 21.9844 2.01562C21.3188 1.35 20.6485 0.9375 19.861 0.632812C19.0969 0.3375 18.2251 0.13125 16.9501 0.075C15.6657 0.0140625 15.2579 0 12.0001 0ZM12.0002 5.83594C8.59707 5.83594 5.83613 8.59688 5.83613 12C5.83613 15.4031 8.59707 18.1641 12.0002 18.1641C15.4033 18.1641 18.1643 15.4031 18.1643 12C18.1643 8.59688 15.4033 5.83594 12.0002 5.83594ZM12.0002 15.9984C9.79238 15.9984 8.00176 14.2078 8.00176 12C8.00176 9.79219 9.79238 8.00156 12.0002 8.00156C14.208 8.00156 15.9986 9.79219 15.9986 12C15.9986 14.2078 14.208 15.9984 12.0002 15.9984ZM18.4079 7.03136C19.2001 7.03136 19.847 6.38917 19.847 5.5923C19.847 4.80011 19.2001 4.15323 18.4079 4.15323C17.6158 4.15323 16.9689 4.79542 16.9689 5.5923C16.9689 6.38449 17.6111 7.03136 18.4079 7.03136Z" fill="#FFFBF8"/>
</svg>
