<svg width="40" height="40" viewBox="0 0 40 40" fill="none" xmlns="http://www.w3.org/2000/svg">
<path d="M19.5557 38.6351C29.8037 38.6351 38.1113 30.3184 38.1113 20.0592C38.1113 9.80004 29.8037 1.48332 19.5557 1.48332C9.30766 1.48332 1 9.80004 1 20.0592C1 30.3184 9.30766 38.6351 19.5557 38.6351Z" fill="#F0F0F0"/>
<path d="M4.83435 8.74693C3.37744 10.6481 2.2757 12.8322 1.63785 15.2122H11.2926L4.83435 8.74693Z" fill="#0052B4"/>
<path d="M37.4735 15.2122C36.8356 12.8322 35.7339 10.6481 34.277 8.74693L27.8187 15.2122H37.4735Z" fill="#0052B4"/>
<path d="M1.63785 24.9065C2.2757 27.2866 3.37744 29.4707 4.83435 31.3718L11.2926 24.9065H1.63785Z" fill="#0052B4"/>
<path d="M30.8558 5.32197C28.9567 3.86347 26.775 2.76052 24.3975 2.12198V11.7872L30.8558 5.32197Z" fill="#0052B4"/>
<path d="M8.25555 34.7967C10.1546 36.2552 12.3364 37.3582 14.7138 37.9967V28.3315L8.25555 34.7967Z" fill="#0052B4"/>
<path d="M14.7138 2.12198C12.3364 2.76052 10.1546 3.86347 8.25555 5.32197L14.7138 11.7872V2.12198Z" fill="#0052B4"/>
<path d="M24.3975 37.9967C26.775 37.3582 28.9567 36.2552 30.8558 34.7967L24.3975 28.3315V37.9967Z" fill="#0052B4"/>
<path d="M27.8187 24.9065L34.277 31.3718C35.7339 29.4707 36.8356 27.2866 37.4735 24.9065H27.8187Z" fill="#0052B4"/>
<path d="M37.9519 17.6357H21.9766V1.64296C21.1865 1.53412 20.3747 1.48332 19.5557 1.48332C18.7366 1.48332 17.9248 1.53412 17.1347 1.64296V17.6357H1.15946C1.05074 18.4266 1 19.2393 1 20.0592C1 20.8792 1.05074 21.6919 1.15946 22.4828H17.1347V38.4755C17.9248 38.5771 18.7366 38.6351 19.5557 38.6351C20.3747 38.6351 21.1865 38.5843 21.9766 38.4755V22.4828H37.9519C38.0534 21.6919 38.1113 20.8792 38.1113 20.0592C38.1113 19.2393 38.0606 18.4266 37.9519 17.6357Z" fill="#D80027"/>
<path d="M24.3976 24.9064L32.6751 33.193C33.0593 32.8084 33.4217 32.4165 33.7624 32.0029L26.6735 24.9064H24.3976Z" fill="#D80027"/>
<path d="M14.7138 24.9064L6.43622 33.193C6.82038 33.5776 7.21179 33.9404 7.62494 34.2814L14.7138 27.1848V24.9064Z" fill="#D80027"/>
<path d="M14.7138 15.2121L6.43625 6.92554C6.05208 7.31012 5.68967 7.70195 5.349 8.11555L12.4378 15.2121H14.7138Z" fill="#D80027"/>
<path d="M24.3976 15.2121L32.6751 6.92551C32.291 6.54094 31.8996 6.17812 31.4864 5.83708L24.3976 12.9337V15.2121Z" fill="#D80027"/>
<circle cx="19.5557" cy="19.5557" r="19.0557" stroke="white"/>
</svg>
