<svg width="24" height="28" viewBox="0 0 24 28" fill="none" xmlns="http://www.w3.org/2000/svg">
<path d="M4.66667 0.666687H19.3333C19.5403 0.666687 19.7445 0.71488 19.9296 0.807451C20.1148 0.900021 20.2758 1.03443 20.4 1.20002L24 6.00002V26C24 26.3536 23.8595 26.6928 23.6095 26.9428C23.3594 27.1929 23.0203 27.3334 22.6667 27.3334H1.33333C0.979711 27.3334 0.640573 27.1929 0.390524 26.9428C0.140476 26.6928 0 26.3536 0 26V6.00002L3.6 1.20002C3.7242 1.03443 3.88524 0.900021 4.07038 0.807451C4.25552 0.71488 4.45967 0.666687 4.66667 0.666687ZM20.6667 6.00002L18.6667 3.33335H5.33333L3.33333 6.00002H20.6667ZM8 11.3334H5.33333V14C5.33333 15.7681 6.03571 17.4638 7.28595 18.7141C8.5362 19.9643 10.2319 20.6667 12 20.6667C13.7681 20.6667 15.4638 19.9643 16.714 18.7141C17.9643 17.4638 18.6667 15.7681 18.6667 14V11.3334H16V14C16 15.0609 15.5786 16.0783 14.8284 16.8284C14.0783 17.5786 13.0609 18 12 18C10.9391 18 9.92172 17.5786 9.17157 16.8284C8.42143 16.0783 8 15.0609 8 14V11.3334Z" fill="white"/>
</svg>
